<svg width="363" height="414" viewBox="0 0 363 414" fill="none" xmlns="http://www.w3.org/2000/svg">
<g filter="url(#filter0_dd)">
<path d="M159.676 100.982C159.676 100.982 168.655 93.252 170.579 88.7426C172.503 84.2332 182.124 80.368 187.255 79.7238C192.386 79.0796 187.255 82.9448 187.255 82.9448C187.255 82.9448 187.255 84.8774 184.69 86.1658C182.124 87.4542 177.634 90.031 179.559 91.9636C181.483 93.8962 185.972 88.7426 186.614 90.031C187.255 91.3194 187.897 91.3194 185.331 93.8962C182.766 96.473 181.868 98.0835 177.827 99.5007C173.786 100.918 168.912 107.231 168.912 107.231L159.676 100.982Z" fill="#EBCDD8"/>
<path d="M149.734 268.893L103.491 130.132C103.491 130.132 93.0361 115.38 100.284 115.123C100.284 115.123 103.362 111.515 106.569 120.083C108.237 124.463 137.869 158.993 148.131 181.54" fill="white"/>
<path d="M100.989 118.956C100.989 118.956 109.712 153.614 123.31 167.271C136.907 180.928 147.169 187.305 147.169 187.305L110.803 199.416L86.1094 149.362L81.0424 117.345L100.989 118.956Z" fill="#5A3C8C"/>
<path d="M135.303 178.931C135.303 178.931 190.462 191.17 194.311 195.036C198.159 198.901 245.172 255.719 244.146 259.52C243.12 263.321 230.42 272.919 230.42 272.919L183.407 225.313L166.09 225.957L119.91 191.815L135.303 178.931Z" fill="#5A3C8C"/>
<path d="M172.696 227.89C172.696 227.89 170.964 204.377 160.766 201.8C150.568 199.223 124.72 188.787 119.076 188.207C113.432 187.628 135.239 179.253 135.239 179.253C135.239 179.253 191.681 190.849 194.246 195.358C196.812 199.867 230.356 273.242 230.356 273.242L183.343 225.635L172.696 227.89Z" fill="#453270"/>
<path d="M103.876 119.471C103.876 119.471 122.989 118.183 129.21 114.833C135.432 111.483 162.241 95.8289 162.241 95.8289L172.965 106.587C172.965 106.587 144.296 132.355 135.38 135.512C126.465 138.668 114.151 142.791 114.151 142.791L103.876 119.471Z" fill="white"/>
<path d="M135.496 178.705C135.496 178.705 124.4 186.5 113.432 187.08C109.776 180.831 108.686 179.027 108.686 179.027C108.686 179.027 125.105 177.224 128.569 172.199C134.149 177.707 135.496 178.705 135.496 178.705Z" fill="#976AEA"/>
<path d="M105.864 51.2503C101.259 48.5027 96.1176 46.7885 90.7913 46.2256C84.4962 50.6424 79.6939 56.8843 77.0264 64.1166C74.3589 71.3489 73.9534 79.2268 75.8642 86.6968C77.7749 94.1668 81.9109 100.873 87.7189 105.918C93.5268 110.963 100.73 114.107 108.365 114.93C116.553 109.161 122.125 100.363 123.857 90.4699C125.589 80.5764 123.339 70.3972 117.601 62.1695C114.49 57.7473 110.492 54.0279 105.864 51.2503Z" fill="#976AEA"/>
<path d="M77.9636 91.4484C77.9636 91.4484 84.6981 96.8597 87.1353 92.6724C89.5726 88.4851 90.7912 79.2086 98.552 78.1134L106.249 77.0183C106.249 77.0183 110.482 89.4514 105.607 102.142C103.875 106.652 100.54 107.811 98.4237 108.069C97.8576 108.152 97.3333 108.416 96.9288 108.822C96.5243 109.228 96.2613 109.755 96.1788 110.323L95.2809 117.281L81.1064 117.345C81.1064 117.345 84.3774 109.357 84.5698 106.652C84.7622 103.946 77.9636 91.4484 77.9636 91.4484Z" fill="#EBCDD8"/>
<path d="M105.928 77.147C106.169 77.073 106.374 76.9125 106.505 76.6961C107.082 75.9875 108.044 73.8616 106.762 68.8368C106.312 67.1115 105.517 65.4962 104.425 64.0896C103.334 62.683 101.968 61.5145 100.412 60.6555C100.094 60.4708 99.7185 60.4146 99.361 60.4984C99.0035 60.5821 98.6913 60.7996 98.4878 61.1064C97.3333 62.7169 94.7037 65.6803 91.1119 66.6466C86.1091 67.935 77.5146 65.6803 74.436 70.9627C71.3573 76.2451 74.5642 92.3502 77.1298 95.2491C77.591 95.841 78.1561 96.3432 78.7974 96.7307C79.1584 96.9177 79.5761 96.9619 79.968 96.8545C80.3599 96.7472 80.6974 96.4961 80.9139 96.1509C81.0442 95.962 81.1115 95.7365 81.1064 95.5067C81.1186 95.3078 81.1698 95.1132 81.2571 94.9342C81.3444 94.7552 81.466 94.5953 81.615 94.4636C81.764 94.3319 81.9374 94.2311 82.1253 94.1669C82.3131 94.1027 82.5118 94.0764 82.7098 94.0895C83.0482 94.0943 83.3709 94.2333 83.6077 94.476C84.059 94.8652 84.4484 95.3214 84.7622 95.8288L85.3395 96.924C85.4477 97.1173 85.5949 97.2859 85.7716 97.419C85.9482 97.5521 86.1506 97.6468 86.3657 97.697L88.0333 98.0835C88.4154 98.1683 88.8154 98.1017 89.1499 97.8977C89.4844 97.6937 89.7277 97.368 89.8292 96.9884L91.6892 89.9022C91.6892 89.7734 91.7533 89.7089 91.7533 89.5801L92.1381 83.589C92.1629 83.2976 92.2652 83.0182 92.4345 82.7802C92.6038 82.5421 92.8337 82.3542 93.1002 82.2362L105.928 77.147Z" fill="#0C0D0E"/>
<path d="M79.9646 57.95C82.7012 53.3122 86.3924 49.3149 90.7912 46.2255C84.7357 45.5825 78.6152 46.4221 72.9531 48.6724C67.291 50.9227 62.2557 54.5169 58.2778 59.1475C54.3 63.7781 51.4978 69.3075 50.111 75.2628C48.7242 81.2181 48.7939 87.4221 50.3143 93.3444C51.8347 99.2667 54.7605 104.731 58.8416 109.27C62.9226 113.809 68.0374 117.288 73.7487 119.41C79.4599 121.531 85.5977 122.231 91.6372 121.451C97.6767 120.671 103.438 118.433 108.429 114.929C103.505 114.394 98.7347 112.89 94.39 110.502C90.0454 108.114 86.2119 104.889 83.1085 101.012C80.0052 97.1357 77.693 92.6827 76.3039 87.908C74.9149 83.1332 74.4762 78.1304 75.0132 73.1853C75.4798 67.7929 77.1739 62.5804 79.9646 57.95Z" fill="white"/>
<path d="M67.3807 207.082C67.3807 207.082 67.1241 227.632 88.7387 232.593C110.353 237.553 131.519 233.044 131.519 233.044L130.557 314.664L151.081 316.596C151.081 316.596 179.109 220.224 172.503 210.432C160.317 192.395 122.475 191.106 122.475 191.106L67.3807 207.082Z" fill="#5A3C8C"/>
<path d="M73.7305 203.024C73.7305 203.024 91.3685 246.894 93.9341 254.818" stroke="#5A3C8C" stroke-width="3" stroke-miterlimit="10" stroke-linecap="round"/>
<path d="M56.6058 105.17L54.0403 111.032C53.6349 111.95 53.4637 112.955 53.5421 113.956C53.6205 114.957 53.946 115.922 54.4892 116.765L55.0665 117.667C55.0665 117.667 54.7458 121.468 50.1278 126.042C45.5099 130.616 46.5361 140.279 46.5361 140.279C48.5885 152.583 65.2645 203.281 63.212 222.607C61.0313 242.706 51.7313 270.922 40.8278 285.739C40.4531 286.246 40.1984 286.832 40.0828 287.452C39.9673 288.072 39.9939 288.711 40.1609 289.32C40.3278 289.928 40.6306 290.491 41.0462 290.964C41.4618 291.437 41.9793 291.81 42.5595 292.052C57.7603 298.236 71.8707 296.884 83.0949 289.991C95.6019 282.325 133.123 286.77 133.123 286.77C133.123 286.77 133.379 252.756 131.006 228.019C128.633 203.281 110.354 174.035 110.354 174.035L91.7536 125.14C91.3175 123.968 90.5857 122.931 89.63 122.129C88.6742 121.327 87.5273 120.788 86.3018 120.566C78.1563 119.084 60.0051 114.639 56.6058 105.17Z" fill="white"/>
<path d="M111.251 172.553C106.582 172.896 101.936 173.499 97.3332 174.357C93.1001 175.13 85.8525 176.418 86.4939 181.186C87.007 185.051 88.5463 189.174 92.3305 191.944C101.31 198.514 105.607 209.595 108.622 214.877C114.073 224.54 131.198 286.641 131.198 286.641L134.982 286.963C134.726 275.496 132.609 236.78 130.236 221.255C127.799 205.279 111.251 172.553 111.251 172.553Z" fill="#E2E2E2"/>
<path d="M67.5733 125.978C67.5312 125.944 67.4961 125.902 67.4701 125.854C67.444 125.807 67.4276 125.755 67.4216 125.701C67.4157 125.647 67.4203 125.593 67.4354 125.541C67.4504 125.489 67.4755 125.44 67.5092 125.398C67.5742 125.33 67.6567 125.282 67.7474 125.26C67.8381 125.237 67.9333 125.24 68.0223 125.269C73.0251 127.717 80.2727 130.551 85.3396 129.649C88.4824 128.425 85.6603 125.849 87.7127 124.109C89.7651 122.37 93.6776 129.198 93.6776 129.198L99.5142 145.11L79.952 141.825C79.952 141.825 81.2348 135.834 76.232 132.291C73.8589 130.487 70.3954 128.039 67.5733 125.978Z" fill="#E2E2E2"/>
<path d="M98.6162 223.832C98.612 223.785 98.6169 223.738 98.6307 223.694C98.6446 223.649 98.667 223.608 98.6968 223.572C98.7266 223.536 98.7631 223.506 98.8043 223.484C98.8455 223.463 98.8905 223.449 98.9369 223.445C99.0304 223.437 99.1235 223.466 99.1957 223.526C99.2679 223.586 99.3132 223.673 99.3217 223.767C100.797 231.82 103.683 249.535 101.374 252.563C99.2576 255.333 82.5816 256.17 72.7684 256.493C72.6688 256.485 72.5752 256.442 72.5046 256.371C72.4339 256.3 72.391 256.206 72.3836 256.106C72.386 256.015 72.4189 255.927 72.4771 255.857C72.5353 255.787 72.6154 255.738 72.7043 255.719C82.0685 254.431 97.3976 251.79 97.9107 248.44C98.5649 244.768 98.6162 230.886 98.6162 223.832Z" fill="#E2E2E2"/>
<path d="M128.569 309.768L127.029 339.981C126.965 341.913 128.825 346.809 130.749 347.196L164.999 350.417C164.999 350.417 170.579 344.619 167.116 339.659C164.165 335.536 154.929 328.514 152.107 326.453C151.857 326.258 151.66 326.001 151.536 325.708C151.413 325.415 151.366 325.094 151.402 324.778L152.941 312.409C148.326 313.395 143.581 313.613 138.895 313.053C131.647 311.958 128.569 309.768 128.569 309.768Z" fill="#976AEA"/>
<path d="M126.965 340.045L126.324 343.717C126.174 344.575 126.338 345.459 126.786 346.205C127.234 346.951 127.935 347.509 128.761 347.776L134.918 349.708C138.382 350.803 140.563 347.711 146.335 349.515C149.863 350.61 155.635 351.963 159.612 352.865C160.819 353.145 162.086 352.997 163.197 352.445C164.308 351.893 165.194 350.971 165.705 349.837L166.731 347.647C166.731 347.647 160.381 348.935 154.673 347.131C141.845 343.073 128.825 347.389 126.965 340.045Z" fill="white"/>
<path d="M154.288 327.999C154.288 327.999 147.489 329.609 145.245 332.701C144.477 333.764 143.791 334.884 143.192 336.051C142.92 336.581 142.869 337.197 143.049 337.765C143.23 338.333 143.627 338.805 144.154 339.079L145.822 339.981C146.327 340.263 146.922 340.34 147.482 340.197C148.043 340.053 148.527 339.699 148.836 339.208C149.991 337.468 151.787 335.02 153.711 334.054C155.484 333.114 157.386 332.441 159.355 332.057L154.288 327.999Z" fill="white"/>
<path d="M152.171 317.369C152.171 317.369 144.539 318.271 139.921 317.949C139.284 317.91 138.657 318.125 138.177 318.547C137.697 318.969 137.402 319.564 137.355 320.204L137.291 320.783C137.258 321.105 137.287 321.43 137.378 321.74C137.47 322.05 137.621 322.339 137.824 322.59C138.026 322.841 138.276 323.05 138.559 323.204C138.842 323.359 139.152 323.455 139.472 323.489H139.857L151.787 322.716L152.171 317.369Z" fill="white"/>
<path d="M227.085 272.211L249.662 292.246C251.137 293.534 256.076 295.145 257.551 293.792L281.41 268.926C281.41 268.926 280.384 260.873 274.355 260.615C269.288 260.358 258.128 263.257 254.729 264.159C254.427 264.25 254.105 264.257 253.8 264.177C253.494 264.098 253.217 263.935 252.997 263.708L244.338 254.753C242.248 259 239.45 262.857 236.064 266.156C230.741 271.18 227.085 272.211 227.085 272.211Z" fill="#976AEA"/>
<path d="M249.726 292.31L252.163 295.144C252.725 295.794 253.503 296.217 254.352 296.336C255.201 296.454 256.064 296.26 256.781 295.789L262.169 292.117C265.183 290.055 264.157 286.383 269.096 283.033C272.174 280.972 276.792 277.236 279.999 274.723C280.963 273.938 281.63 272.844 281.887 271.625C282.144 270.405 281.975 269.133 281.41 268.024L280.32 265.833C280.32 265.833 277.369 271.631 272.367 274.981C261.271 282.518 256.589 295.466 249.726 292.31Z" fill="white"/>
<path d="M257.358 263.386C257.358 263.386 254.408 269.763 255.434 273.435C255.758 274.722 256.21 275.974 256.781 277.171C257.035 277.704 257.481 278.12 258.029 278.335C258.576 278.55 259.185 278.549 259.731 278.331L261.463 277.622C261.996 277.402 262.425 276.987 262.663 276.46C262.902 275.934 262.931 275.336 262.746 274.788C262.105 272.855 261.335 269.828 261.72 267.702C262.091 265.701 262.762 263.768 263.708 261.968L257.358 263.386Z" fill="white"/>
<path d="M247.737 258.425C247.737 258.425 243.697 264.996 240.554 268.41C240.125 268.882 239.898 269.505 239.922 270.144C239.946 270.782 240.219 271.386 240.682 271.824L241.131 272.211C241.362 272.437 241.635 272.614 241.935 272.733C242.234 272.852 242.554 272.91 242.876 272.904C243.198 272.898 243.516 272.828 243.811 272.698C244.106 272.568 244.372 272.381 244.595 272.147C244.659 272.018 244.787 271.953 244.851 271.824L251.65 261.968L247.737 258.425Z" fill="white"/>
<g style="mix-blend-mode:multiply">
<g style="mix-blend-mode:multiply">
<path d="M119.243 271.162C119.209 271.158 119.179 271.142 119.156 271.117C119.134 271.092 119.122 271.059 119.122 271.025L119.056 269.885C119.051 269.852 119.058 269.818 119.076 269.79C119.094 269.761 119.121 269.74 119.153 269.73L122.811 268.537L119.114 268.071C119.084 268.067 119.057 268.054 119.036 268.032C119.015 268.011 119.002 267.983 119 267.953L118.903 266.402C118.901 266.391 118.901 266.379 118.903 266.368C118.906 266.357 118.91 266.347 118.917 266.338C118.923 266.329 118.931 266.321 118.941 266.315C118.95 266.309 118.961 266.305 118.972 266.304C118.985 266.292 119.002 266.286 119.02 266.287L124.75 267.502C124.78 267.513 124.805 267.532 124.823 267.558C124.842 267.583 124.852 267.613 124.852 267.645L124.947 269.088C124.948 269.121 124.94 269.153 124.922 269.181C124.905 269.209 124.88 269.23 124.85 269.243L121.41 270.301L124.919 270.974C124.947 270.982 124.972 270.999 124.991 271.022C125.009 271.045 125.021 271.073 125.023 271.102L125.113 272.513C125.114 272.544 125.105 272.574 125.089 272.6C125.072 272.626 125.049 272.647 125.021 272.66L119.472 274.531C119.465 274.539 119.457 274.546 119.447 274.551C119.437 274.555 119.427 274.558 119.416 274.558C119.406 274.559 119.395 274.557 119.385 274.553C119.375 274.549 119.366 274.543 119.358 274.535L119.262 272.984C119.259 272.956 119.266 272.928 119.282 272.905C119.298 272.883 119.321 272.866 119.348 272.86L122.777 271.907L119.243 271.162Z" fill="#EA522C"/>
</g>
<g style="mix-blend-mode:multiply">
<path d="M115.808 265.032C115.79 264.911 115.796 264.787 115.826 264.668C115.856 264.549 115.91 264.438 115.983 264.34C116.057 264.243 116.149 264.161 116.255 264.099C116.361 264.038 116.477 263.999 116.599 263.983C116.64 263.974 116.682 263.972 116.724 263.975C116.973 263.941 117.225 264.007 117.425 264.158C117.626 264.309 117.759 264.534 117.796 264.783C117.808 264.82 117.818 264.85 117.828 264.881C117.859 265.136 117.788 265.393 117.63 265.595C117.473 265.797 117.242 265.928 116.988 265.96L116.902 265.988C116.653 266.017 116.401 265.946 116.203 265.79C116.005 265.634 115.876 265.406 115.843 265.156C115.829 265.115 115.817 265.074 115.808 265.032ZM124.372 263.612C124.403 263.608 124.434 263.616 124.459 263.634C124.483 263.652 124.501 263.679 124.507 263.709L124.603 265.037C124.605 265.052 124.605 265.068 124.601 265.083C124.598 265.098 124.592 265.112 124.583 265.125C124.573 265.137 124.562 265.148 124.549 265.156C124.536 265.164 124.521 265.169 124.506 265.171L118.889 265.618C118.859 265.621 118.828 265.613 118.803 265.595C118.778 265.577 118.761 265.55 118.755 265.52L118.655 264.16C118.652 264.133 118.66 264.106 118.677 264.085C118.694 264.064 118.719 264.051 118.746 264.048L124.372 263.612Z" fill="#EA522C"/>
</g>
<g style="mix-blend-mode:multiply">
<path d="M118.665 262.627C118.631 262.629 118.596 262.617 118.57 262.595C118.543 262.572 118.526 262.54 118.523 262.505L118.434 261.42C118.433 261.384 118.444 261.348 118.464 261.318C118.484 261.288 118.513 261.265 118.547 261.253L119.094 261.068C118.799 260.89 118.554 260.64 118.381 260.342C118.209 260.044 118.114 259.706 118.106 259.362C117.986 258.043 118.916 257.049 120.535 256.931L123.786 256.657C123.801 256.654 123.816 256.654 123.831 256.657C123.846 256.659 123.86 256.665 123.873 256.674C123.885 256.683 123.895 256.694 123.903 256.706C123.911 256.719 123.917 256.734 123.919 256.749L124.037 258.103C124.038 258.119 124.037 258.135 124.032 258.15C124.027 258.165 124.019 258.18 124.009 258.192C123.999 258.204 123.986 258.215 123.972 258.222C123.958 258.229 123.942 258.234 123.926 258.235L121.001 258.474C120.099 258.547 119.701 259.055 119.745 259.686C119.789 260.317 120.326 260.768 121.355 260.727L124.059 260.495C124.089 260.494 124.119 260.505 124.142 260.525C124.165 260.545 124.179 260.573 124.183 260.603L124.295 261.959C124.285 262.03 124.275 262.081 124.196 262.087L118.665 262.627Z" fill="#EA522C"/>
</g>
<g style="mix-blend-mode:multiply">
<path d="M121.52 253.689L123.606 254.257C123.632 254.267 123.655 254.283 123.672 254.305C123.689 254.327 123.7 254.353 123.702 254.381L123.851 255.826C123.838 255.906 123.834 255.955 123.73 255.928L115.211 253.628C115.174 253.618 115.141 253.597 115.117 253.567C115.092 253.538 115.077 253.502 115.074 253.463L114.925 251.977C114.921 251.943 114.929 251.908 114.947 251.878C114.965 251.848 114.993 251.826 115.026 251.814L122.91 247.795C123.001 247.765 123.047 247.783 123.058 247.874L123.205 249.314C123.222 249.363 123.185 249.436 123.129 249.448L121.195 250.42L121.52 253.689ZM120.035 253.3L119.803 251.087L117.054 252.49L120.035 253.3Z" fill="#EA522C"/>
</g>
<g style="mix-blend-mode:multiply">
<path d="M121.763 243.049C122.064 243.26 122.316 243.534 122.499 243.853C122.683 244.172 122.794 244.527 122.825 244.894C122.993 246.197 122.093 247.18 120.471 247.347L117.226 247.761C117.197 247.768 117.167 247.762 117.141 247.747C117.116 247.731 117.097 247.707 117.09 247.678L116.917 246.322C116.914 246.289 116.923 246.257 116.944 246.231C116.964 246.205 116.993 246.188 117.026 246.184L119.928 245.837C120.909 245.717 121.321 245.252 121.224 244.523C121.16 243.932 120.646 243.412 119.462 243.492L116.742 243.818C116.657 243.806 116.606 243.796 116.591 243.713L116.429 242.367C116.425 242.352 116.425 242.337 116.428 242.322C116.431 242.307 116.437 242.293 116.445 242.281C116.454 242.268 116.465 242.258 116.477 242.25C116.49 242.242 116.504 242.236 116.519 242.234L122.092 241.558C122.126 241.556 122.159 241.567 122.185 241.589C122.211 241.61 122.228 241.641 122.233 241.674L122.36 242.753C122.365 242.79 122.358 242.828 122.34 242.862C122.322 242.895 122.294 242.921 122.259 242.936L121.763 243.049Z" fill="#EA522C"/>
</g>
<g style="mix-blend-mode:multiply">
<path d="M120.218 237.867C120.168 237.705 120.088 237.554 119.98 237.423C119.97 237.412 119.962 237.4 119.957 237.386C119.951 237.372 119.949 237.357 119.95 237.342C119.95 237.327 119.954 237.313 119.961 237.299C119.967 237.286 119.976 237.274 119.988 237.264L121.085 236.724C121.1 236.713 121.116 236.705 121.135 236.7C121.153 236.695 121.171 236.694 121.19 236.697C121.208 236.699 121.226 236.706 121.242 236.715C121.258 236.725 121.273 236.737 121.284 236.752C121.593 237.095 121.79 237.525 121.848 237.983C121.993 239.056 121.333 239.788 120.102 239.932L117.624 240.271L117.727 240.998C117.732 241.027 117.725 241.058 117.708 241.082C117.691 241.107 117.666 241.124 117.636 241.13L116.393 241.298C116.363 241.296 116.335 241.282 116.315 241.26C116.295 241.238 116.284 241.208 116.285 241.178L116.176 240.453L114.444 240.677C114.43 240.681 114.414 240.682 114.399 240.68C114.384 240.679 114.37 240.674 114.356 240.666C114.343 240.659 114.331 240.649 114.322 240.637C114.313 240.625 114.306 240.611 114.302 240.596L114.123 239.263C114.118 239.25 114.117 239.236 114.118 239.222C114.119 239.208 114.123 239.195 114.13 239.183C114.137 239.171 114.146 239.16 114.158 239.152C114.169 239.144 114.182 239.139 114.195 239.136L114.226 239.126L115.957 238.882L115.806 237.791C115.82 237.711 115.828 237.654 115.907 237.648L117.156 237.478C117.185 237.476 117.214 237.486 117.237 237.505C117.26 237.524 117.274 237.551 117.278 237.58L117.432 238.677L118.997 238.462C119.983 238.333 120.266 238.231 120.218 237.867Z" fill="#EA522C"/>
</g>
<g style="mix-blend-mode:multiply">
<path d="M115.11 234.062C115.01 233.463 115.089 232.847 115.337 232.294C115.585 231.74 115.991 231.273 116.503 230.951C117.016 230.629 117.612 230.467 118.217 230.485C118.822 230.503 119.409 230.7 119.904 231.051C120.398 231.403 120.779 231.893 120.997 232.461C121.215 233.028 121.261 233.647 121.129 234.239C120.997 234.832 120.694 235.372 120.256 235.791C119.819 236.209 119.268 236.489 118.672 236.593L118.586 236.622C118.214 236.704 117.828 236.711 117.453 236.643C117.077 236.575 116.718 236.433 116.396 236.226C116.075 236.018 115.797 235.749 115.579 235.434C115.361 235.119 115.207 234.764 115.126 234.39C115.113 234.281 115.108 234.172 115.11 234.062ZM119.612 233.36C119.571 233.07 119.446 232.798 119.252 232.579C119.058 232.359 118.803 232.203 118.521 232.128C118.238 232.054 117.94 232.065 117.665 232.161C117.389 232.256 117.148 232.432 116.972 232.665C116.796 232.898 116.693 233.179 116.677 233.471C116.66 233.764 116.73 234.055 116.877 234.308C117.025 234.561 117.244 234.764 117.507 234.892C117.77 235.021 118.064 235.068 118.353 235.028L118.384 235.018C118.563 235.005 118.737 234.956 118.897 234.875C119.058 234.793 119.2 234.681 119.317 234.545C119.434 234.408 119.522 234.25 119.578 234.078C119.633 233.907 119.655 233.727 119.641 233.547C119.634 233.484 119.624 233.422 119.612 233.36Z" fill="#EA522C"/>
</g>
<g style="mix-blend-mode:multiply">
<path d="M123.016 228.581L114.768 230.098C114.752 230.102 114.735 230.103 114.718 230.1C114.701 230.097 114.685 230.091 114.671 230.082C114.657 230.073 114.644 230.061 114.634 230.047C114.624 230.033 114.617 230.017 114.614 230.001L114.445 229.079C114.437 229.043 114.442 229.006 114.458 228.973C114.474 228.941 114.501 228.915 114.533 228.899L115.106 228.591C114.802 228.443 114.538 228.222 114.338 227.948C114.138 227.674 114.008 227.355 113.96 227.019C113.811 226.215 113.986 225.386 114.447 224.714C114.908 224.042 115.616 223.581 116.416 223.434C117.217 223.287 118.043 223.464 118.715 223.928C119.386 224.392 119.847 225.105 119.996 225.908C120.064 226.205 120.067 226.513 120.003 226.81C119.94 227.108 119.812 227.388 119.628 227.63L122.779 227.057C122.794 227.052 122.809 227.051 122.824 227.053C122.839 227.055 122.854 227.06 122.867 227.067C122.88 227.075 122.892 227.085 122.901 227.097C122.91 227.109 122.917 227.123 122.921 227.138L123.175 228.473C123.172 228.491 123.166 228.508 123.156 228.523C123.146 228.538 123.133 228.551 123.118 228.561C123.104 228.571 123.087 228.578 123.069 228.581C123.051 228.585 123.033 228.585 123.016 228.581ZM118.39 226.266C118.339 225.977 118.204 225.71 118.001 225.498C117.799 225.286 117.538 225.139 117.253 225.075C116.968 225.012 116.67 225.035 116.398 225.141C116.126 225.247 115.892 225.432 115.725 225.673C115.559 225.913 115.467 226.198 115.461 226.491C115.456 226.784 115.538 227.072 115.696 227.319C115.854 227.566 116.081 227.761 116.349 227.878C116.617 227.996 116.914 228.031 117.201 227.979C117.564 227.933 117.893 227.746 118.118 227.458C118.342 227.169 118.444 226.803 118.401 226.439C118.401 226.381 118.397 226.323 118.39 226.266Z" fill="#EA522C"/>
</g>
<g style="mix-blend-mode:multiply">
<path d="M110.259 222.828C110.221 222.696 110.211 222.557 110.229 222.42C110.247 222.283 110.293 222.152 110.364 222.034C110.435 221.916 110.529 221.814 110.641 221.734C110.753 221.655 110.881 221.599 111.015 221.571C111.15 221.543 111.289 221.543 111.423 221.571C111.558 221.6 111.685 221.655 111.798 221.735C111.91 221.815 112.005 221.917 112.077 222.035C112.148 222.153 112.194 222.284 112.213 222.421C112.251 222.554 112.261 222.693 112.243 222.829C112.225 222.966 112.179 223.098 112.108 223.216C112.037 223.333 111.943 223.435 111.831 223.515C111.719 223.595 111.591 223.65 111.457 223.678C111.322 223.706 111.184 223.706 111.049 223.678C110.914 223.65 110.787 223.594 110.674 223.515C110.562 223.435 110.467 223.333 110.396 223.215C110.324 223.097 110.278 222.965 110.259 222.828ZM118.56 220.267C118.593 220.261 118.627 220.267 118.656 220.285C118.685 220.303 118.706 220.332 118.715 220.364L118.987 221.693C118.992 221.707 118.994 221.722 118.992 221.737C118.991 221.752 118.987 221.767 118.98 221.78C118.973 221.793 118.963 221.805 118.952 221.814C118.94 221.823 118.927 221.83 118.913 221.834L113.397 222.98C113.326 222.97 113.267 222.956 113.246 222.875L112.968 221.548C112.962 221.52 112.967 221.492 112.981 221.468C112.996 221.444 113.019 221.427 113.046 221.419L118.56 220.267Z" fill="#EA522C"/>
</g>
<g style="mix-blend-mode:multiply">
<path d="M117.863 217.157C117.878 217.153 117.895 217.151 117.91 217.153C117.926 217.155 117.942 217.16 117.956 217.168C117.97 217.176 117.982 217.187 117.992 217.199C118.002 217.212 118.009 217.227 118.014 217.242L118.314 218.575C118.321 218.606 118.316 218.638 118.3 218.665C118.284 218.692 118.258 218.712 118.228 218.72L109.82 220.665C109.806 220.67 109.791 220.672 109.776 220.67C109.762 220.669 109.747 220.665 109.734 220.658C109.721 220.651 109.709 220.641 109.7 220.629C109.691 220.618 109.684 220.604 109.68 220.59L109.381 219.263C109.376 219.249 109.373 219.234 109.373 219.219C109.374 219.204 109.377 219.19 109.383 219.176C109.389 219.163 109.398 219.15 109.409 219.14C109.42 219.13 109.433 219.123 109.447 219.118L117.863 217.157Z" fill="#EA522C"/>
</g>
<g style="mix-blend-mode:multiply">
<path d="M111.101 214.427C110.94 213.84 110.956 213.219 111.147 212.641C111.338 212.064 111.695 211.557 112.174 211.185C112.653 210.812 113.231 210.591 113.836 210.548C114.441 210.506 115.045 210.644 115.572 210.946C116.1 211.248 116.527 211.7 116.799 212.244C117.071 212.789 117.177 213.402 117.102 214.005C117.027 214.609 116.776 215.177 116.38 215.636C115.983 216.096 115.46 216.427 114.875 216.587C114.512 216.706 114.129 216.752 113.747 216.723C113.366 216.693 112.993 216.588 112.652 216.414C112.31 216.24 112.006 216 111.757 215.709C111.507 215.417 111.317 215.079 111.198 214.714C111.16 214.62 111.127 214.525 111.101 214.427ZM115.492 213.259C115.444 213.069 115.358 212.891 115.241 212.735C115.123 212.578 114.976 212.447 114.808 212.347C114.639 212.248 114.453 212.183 114.26 212.157C114.067 212.13 113.87 212.142 113.682 212.192C113.493 212.242 113.317 212.329 113.162 212.448C113.008 212.567 112.879 212.716 112.782 212.886C112.685 213.055 112.623 213.243 112.599 213.437C112.574 213.631 112.589 213.828 112.641 214.017C112.745 214.393 112.993 214.713 113.331 214.908C113.668 215.102 114.069 215.156 114.444 215.056C114.82 214.956 115.141 214.711 115.337 214.375C115.534 214.038 115.589 213.637 115.492 213.259Z" fill="#EA522C"/>
</g>
<g style="mix-blend-mode:multiply">
<path d="M113.478 206.704C113.407 206.554 113.302 206.422 113.172 206.318C113.152 206.292 113.144 206.26 113.148 206.228C113.153 206.196 113.17 206.167 113.195 206.147L114.198 205.428C114.265 205.365 114.334 205.348 114.393 205.403C114.755 205.683 115.024 206.067 115.163 206.503C115.505 207.516 114.977 208.361 113.806 208.742L111.436 209.541L111.669 210.231C111.686 210.256 111.694 210.286 111.69 210.316C111.687 210.347 111.672 210.374 111.649 210.394L110.464 210.794C110.452 210.8 110.438 210.803 110.424 210.804C110.41 210.805 110.395 210.802 110.382 210.797C110.369 210.792 110.357 210.784 110.347 210.774C110.337 210.764 110.329 210.752 110.324 210.739L110.093 210.055L108.412 210.589C108.39 210.605 108.364 210.613 108.337 210.611C108.309 210.609 108.284 210.597 108.266 210.577L107.835 209.301C107.829 209.289 107.826 209.275 107.825 209.262C107.824 209.248 107.826 209.234 107.83 209.221C107.835 209.209 107.842 209.197 107.851 209.187C107.86 209.176 107.871 209.168 107.883 209.162L107.914 209.152L109.573 208.593L109.217 207.536C109.206 207.509 109.205 207.478 109.216 207.45C109.227 207.423 109.248 207.4 109.275 207.388L110.49 206.978C110.504 206.973 110.519 206.971 110.534 206.972C110.549 206.974 110.564 206.978 110.577 206.985C110.59 206.992 110.601 207.002 110.611 207.013C110.62 207.025 110.627 207.038 110.631 207.053L110.989 208.115L112.484 207.611C113.336 207.208 113.595 207.073 113.478 206.704Z" fill="#EA522C"/>
</g>
<g style="mix-blend-mode:multiply">
<path d="M111.822 201.913C111.664 201.502 111.371 201.157 110.991 200.935C110.97 200.934 110.95 200.927 110.933 200.915C110.915 200.904 110.901 200.888 110.891 200.87C110.882 200.851 110.877 200.83 110.878 200.809C110.878 200.788 110.884 200.768 110.895 200.75L111.372 199.637C111.387 199.607 111.414 199.584 111.446 199.574C111.477 199.563 111.512 199.565 111.542 199.58C111.939 199.754 112.295 200.01 112.587 200.331C112.88 200.651 113.102 201.03 113.24 201.441C113.511 202.178 113.492 202.989 113.186 203.71C112.88 204.431 112.311 205.007 111.595 205.319C110.878 205.631 110.069 205.655 109.334 205.388C108.598 205.121 107.992 204.582 107.639 203.881C106.925 202.205 107.422 200.65 109.711 199.688C109.735 199.67 109.766 199.663 109.796 199.666C109.826 199.67 109.853 199.685 109.873 199.708L111.542 203.632C111.773 203.418 111.926 203.133 111.976 202.821C112.027 202.51 111.973 202.19 111.822 201.913ZM109.426 201.613C109.184 201.805 109.011 202.072 108.935 202.372C108.859 202.672 108.883 202.99 109.004 203.276C109.125 203.561 109.336 203.8 109.605 203.954C109.873 204.108 110.185 204.17 110.491 204.129L109.426 201.613Z" fill="#EA522C"/>
</g>
</g>
<path d="M177.57 154.966L165.961 138.861C165.961 138.861 134.469 150.07 118.307 147.622C102.144 145.175 74.9491 136.027 74.9491 136.027C74.9491 136.027 69.8822 154.387 74.9491 165.016C80.0161 175.645 80.914 175.516 80.914 175.516C80.914 175.516 109.584 175.903 130.814 170.814C152.043 165.724 177.57 154.966 177.57 154.966Z" fill="white"/>
<path d="M194.131 136.864C189.879 142.087 183.742 145.408 177.06 146.101C170.378 146.794 163.695 144.802 158.47 140.562C153.273 136.289 149.969 130.125 149.28 123.414C148.592 116.704 150.574 109.992 154.795 104.745L171.58 84.0078L210.916 116.128L194.131 136.864Z" fill="white"/>
<path d="M193.816 68.547C212.416 53.0862 232.299 74.989 232.447 75.1564C232.947 78.566 232.75 82.0422 231.867 85.3727C230.985 88.7033 229.437 91.8183 227.316 94.5275L210.845 115.561L190.924 99.7907L211.063 115.045C211.063 115.045 175.126 84.0078 193.816 68.547Z" fill="#F08B1E"/>
<path d="M171.041 84.0469L171.112 83.9497C171.095 83.9877 171.076 84.0245 171.054 84.0598L171.041 84.0469Z" fill="#D34362"/>
<path d="M170.791 84.5296L171.028 84.0593L190.924 99.7907L170.791 84.5296Z" fill="white"/>
<path d="M223.083 58.7422C228.188 62.7876 231.543 68.656 232.447 75.1242C232.28 74.9374 212.423 53.0861 193.816 68.5469C175.21 84.0077 211.076 115.078 211.076 115.078L190.924 99.7906L171.041 84.0593C171.063 84.0241 171.082 83.9876 171.099 83.9498L187.499 63.0133C191.667 57.7265 197.747 54.3103 204.414 53.5101C211.081 52.7099 217.792 54.5908 223.083 58.7422Z" fill="#EA522C"/>
<path d="M167.757 142.34C167.757 142.34 174.235 138.926 176.416 137.38C178.597 135.834 181.419 130.487 182.573 128.361C183.086 127.395 183.664 127.33 184.177 127.524C184.507 127.675 184.773 127.94 184.926 128.27C185.079 128.601 185.109 128.976 185.01 129.327L183.535 134.352C183.535 134.352 188.41 132.87 190.59 131.26C192.771 129.649 194.439 126.493 195.529 127.073C196.062 127.407 196.455 127.926 196.632 128.532C196.809 129.137 196.759 129.787 196.491 130.358C195.914 131.453 197.582 130.938 198.03 132.548C198.479 134.159 197.966 135.254 197.902 137.96C197.838 140.665 198.351 142.276 196.684 142.791C195.016 143.306 190.655 146.399 186.357 146.85C182.06 147.301 174.941 153.034 174.941 153.034L167.757 142.34Z" fill="#EBCDD8"/>
</g>
<defs>
<filter id="filter0_dd" x="0.012207" y="0.015625" width="361.992" height="412.987" filterUnits="userSpaceOnUse" color-interpolation-filters="sRGB">
<feFlood flood-opacity="0" result="BackgroundImageFix"/>
<feColorMatrix in="SourceAlpha" type="matrix" values="0 0 0 0 0 0 0 0 0 0 0 0 0 0 0 0 0 0 127 0"/>
<feOffset dx="50" dy="30"/>
<feGaussianBlur stdDeviation="15"/>
<feColorMatrix type="matrix" values="0 0 0 0 0.345986 0 0 0 0 0.123056 0 0 0 0 0.0662305 0 0 0 0.0551792 0"/>
<feBlend mode="normal" in2="BackgroundImageFix" result="effect1_dropShadow"/>
<feColorMatrix in="SourceAlpha" type="matrix" values="0 0 0 0 0 0 0 0 0 0 0 0 0 0 0 0 0 0 127 0"/>
<feOffset dy="-6"/>
<feGaussianBlur stdDeviation="20"/>
<feColorMatrix type="matrix" values="0 0 0 0 0.345098 0 0 0 0 0.121569 0 0 0 0 0.0666667 0 0 0 0.04 0"/>
<feBlend mode="normal" in2="effect1_dropShadow" result="effect2_dropShadow"/>
<feBlend mode="normal" in="SourceGraphic" in2="effect2_dropShadow" result="shape"/>
</filter>
</defs>
</svg>
