<?xml version="1.0" encoding="utf-8"?>
<!-- Generator: Adobe Illustrator 24.0.1, SVG Export Plug-In . SVG Version: 6.00 Build 0)  -->
<svg version="1.1" id="cosmonaute" xmlns="http://www.w3.org/2000/svg" xmlns:xlink="http://www.w3.org/1999/xlink" x="0px" y="0px"
	 viewBox="0 0 243 308" style="enable-background:new 0 0 243 308;" xml:space="preserve">
<style type="text/css">
	.st0{fill:#EBCDD8;}
	.st1{fill:#FFFFFF;}
	.st2{fill:#5A3C8C;}
	.st3{fill:#453270;}
	.st4{fill:#976AEA;}
	.st5{fill:#0C0D0E;}
	.st6{fill:none;stroke:#5A3C8C;stroke-width:3;stroke-linecap:round;stroke-miterlimit:10;}
	.st7{fill:#E2E2E2;}
	.st8{fill:#EA522C;}
	.st9{fill:#F08B1E;}
	.st10{fill:#D34362;}
</style>
<path class="st0" d="M119.7,55c0,0,9-7.7,10.9-12.2c1.9-4.5,11.5-8.4,16.7-9c5.1-0.6,0,3.2,0,3.2s0,1.9-2.6,3.2
	c-2.6,1.3-7.1,3.9-5.1,5.8c1.9,1.9,6.4-3.2,7.1-1.9c0.6,1.3,1.3,1.3-1.3,3.9c-2.6,2.6-3.5,4.2-7.5,5.6c-4,1.4-8.9,7.7-8.9,7.7
	L119.7,55z"/>
<path class="st1" d="M109.7,222.9L63.5,84.1c0,0-10.5-14.8-3.2-15c0,0,3.1-3.6,6.3,5c1.7,4.4,31.3,38.9,41.6,61.5"/>
<path class="st2" d="M61,73c0,0,8.7,34.7,22.3,48.3s23.9,20,23.9,20l-36.4,12.1l-24.7-50.1l-5.1-32L61,73z"/>
<path class="st2" d="M95.3,132.9c0,0,55.2,12.2,59,16.1c3.8,3.9,50.9,60.7,49.8,64.5c-1,3.8-13.7,13.4-13.7,13.4l-47-47.6l-17.3,0.6
	l-46.2-34.1L95.3,132.9z"/>
<path class="st3" d="M132.7,181.9c0,0-1.7-23.5-11.9-26.1s-36-13-41.7-13.6c-5.6-0.6,16.2-9,16.2-9s56.4,11.6,59,16.1
	c2.6,4.5,36.1,77.9,36.1,77.9l-47-47.6L132.7,181.9z"/>
<path class="st1" d="M63.9,73.5c0,0,19.1-1.3,25.3-4.6c6.2-3.3,33-19,33-19L133,60.6c0,0-28.7,25.8-37.6,28.9
	c-8.9,3.2-21.2,7.3-21.2,7.3L63.9,73.5z"/>
<path class="st4" d="M95.5,132.7c0,0-11.1,7.8-22.1,8.4c-3.7-6.2-4.7-8.1-4.7-8.1s16.4-1.8,19.9-6.8
	C94.1,131.7,95.5,132.7,95.5,132.7z"/>
<path class="st4" d="M65.9,5.3c-4.6-2.7-9.7-4.5-15.1-5C44.5,4.6,39.7,10.9,37,18.1c-2.7,7.2-3.1,15.1-1.2,22.6
	c1.9,7.5,6,14.2,11.9,19.2c5.8,5,13,8.2,20.6,9c8.2-5.8,13.8-14.6,15.5-24.5c1.7-9.9-0.5-20.1-6.3-28.3C74.5,11.7,70.5,8,65.9,5.3z"
	/>
<path class="st0" d="M38,45.4c0,0,6.7,5.4,9.2,1.2c2.4-4.2,3.7-13.5,11.4-14.6l7.7-1.1c0,0,4.2,12.4-0.6,25.1
	c-1.7,4.5-5.1,5.7-7.2,5.9c-0.6,0.1-1.1,0.3-1.5,0.8c-0.4,0.4-0.7,0.9-0.8,1.5l-0.9,7l-14.2,0.1c0,0,3.3-8,3.5-10.7
	C44.8,57.9,38,45.4,38,45.4z"/>
<path class="st5" d="M65.9,31.1c0.2-0.1,0.4-0.2,0.6-0.5c0.6-0.7,1.5-2.8,0.3-7.9c-0.4-1.7-1.2-3.3-2.3-4.7c-1.1-1.4-2.5-2.6-4-3.4
	c-0.3-0.2-0.7-0.2-1.1-0.2c-0.4,0.1-0.7,0.3-0.9,0.6c-1.2,1.6-3.8,4.6-7.4,5.5c-5,1.3-13.6-1-16.7,4.3c-3.1,5.3,0.1,21.4,2.7,24.3
	c0.5,0.6,1,1.1,1.7,1.5c0.4,0.2,0.8,0.2,1.2,0.1c0.4-0.1,0.7-0.4,0.9-0.7c0.1-0.2,0.2-0.4,0.2-0.6c0-0.2,0.1-0.4,0.2-0.6
	s0.2-0.3,0.4-0.5c0.1-0.1,0.3-0.2,0.5-0.3c0.2-0.1,0.4-0.1,0.6-0.1c0.3,0,0.7,0.1,0.9,0.4c0.5,0.4,0.8,0.8,1.2,1.4l0.6,1.1
	c0.1,0.2,0.3,0.4,0.4,0.5c0.2,0.1,0.4,0.2,0.6,0.3l1.7,0.4c0.4,0.1,0.8,0,1.1-0.2c0.3-0.2,0.6-0.5,0.7-0.9l1.9-7.1
	c0-0.1,0.1-0.2,0.1-0.3l0.4-6c0-0.3,0.1-0.6,0.3-0.8c0.2-0.2,0.4-0.4,0.7-0.5L65.9,31.1z"/>
<path class="st1" d="M40,11.9c2.7-4.6,6.4-8.6,10.8-11.7C44.7-0.4,38.6,0.4,33,2.7c-5.7,2.3-10.7,5.8-14.7,10.5
	c-4,4.6-6.8,10.2-8.2,16.1c-1.4,6-1.3,12.2,0.2,18.1c1.5,5.9,4.4,11.4,8.5,15.9c4.1,4.5,9.2,8,14.9,10.1c5.7,2.1,11.8,2.8,17.9,2
	c6-0.8,11.8-3,16.8-6.5c-4.9-0.5-9.7-2-14-4.4c-4.3-2.4-8.2-5.6-11.3-9.5c-3.1-3.9-5.4-8.3-6.8-13.1c-1.4-4.8-1.8-9.8-1.3-14.7
	C35.5,21.8,37.2,16.6,40,11.9z"/>
<path class="st2" d="M27.4,161.1c0,0-0.3,20.6,21.4,25.5c21.6,5,42.8,0.5,42.8,0.5l-1,81.6l20.5,1.9c0,0,28-96.4,21.4-106.2
	c-12.2-18-50-19.3-50-19.3L27.4,161.1z"/>
<path class="st6" d="M33.7,157c0,0,17.6,43.9,20.2,51.8"/>
<path class="st1" d="M16.6,59.2L14,65c-0.4,0.9-0.6,1.9-0.5,2.9c0.1,1,0.4,2,0.9,2.8l0.6,0.9c0,0-0.3,3.8-4.9,8.4
	c-4.6,4.6-3.6,14.2-3.6,14.2c2.1,12.3,18.7,63,16.7,82.3c-2.2,20.1-11.5,48.3-22.4,63.1c-0.4,0.5-0.6,1.1-0.7,1.7
	c-0.1,0.6-0.1,1.3,0.1,1.9c0.2,0.6,0.5,1.2,0.9,1.6c0.4,0.5,0.9,0.8,1.5,1.1c15.2,6.2,29.3,4.8,40.5-2.1c12.5-7.7,50-3.2,50-3.2
	s0.3-34-2.1-58.8c-2.4-24.7-20.7-54-20.7-54L51.8,79.1c-0.4-1.2-1.2-2.2-2.1-3c-1-0.8-2.1-1.3-3.3-1.6C38.2,73.1,20,68.6,16.6,59.2z
	"/>
<path class="st7" d="M71.3,126.6c-4.7,0.3-9.3,0.9-13.9,1.8c-4.2,0.8-11.5,2.1-10.8,6.8c0.5,3.9,2.1,8,5.8,10.8
	c9,6.6,13.3,17.7,16.3,22.9c5.5,9.7,22.6,71.8,22.6,71.8L95,241c-0.3-11.5-2.4-50.2-4.7-65.7C87.8,159.3,71.3,126.6,71.3,126.6z"/>
<path class="st7" d="M27.6,80c0,0-0.1-0.1-0.1-0.1c0,0,0-0.1,0-0.2c0-0.1,0-0.1,0-0.2c0-0.1,0-0.1,0.1-0.1c0.1-0.1,0.1-0.1,0.2-0.1
	c0.1,0,0.2,0,0.3,0c5,2.4,12.3,5.3,17.3,4.4c3.1-1.2,0.3-3.8,2.4-5.5c2.1-1.7,6,5.1,6,5.1l5.8,15.9L40,95.8c0,0,1.3-6-3.7-9.5
	C33.9,84.5,30.4,82,27.6,80z"/>
<path class="st7" d="M58.6,177.8c0,0,0-0.1,0-0.1c0,0,0-0.1,0.1-0.1c0,0,0.1-0.1,0.1-0.1c0,0,0.1,0,0.1,0c0.1,0,0.2,0,0.3,0.1
	c0.1,0.1,0.1,0.1,0.1,0.2c1.5,8.1,4.4,25.8,2.1,28.8c-2.1,2.8-18.8,3.6-28.6,3.9c-0.1,0-0.2-0.1-0.3-0.1c-0.1-0.1-0.1-0.2-0.1-0.3
	c0-0.1,0-0.2,0.1-0.2c0.1-0.1,0.1-0.1,0.2-0.1c9.4-1.3,24.7-3.9,25.2-7.3C58.6,198.8,58.6,184.9,58.6,177.8z"/>
<path class="st4" d="M88.6,263.8L87,294c-0.1,1.9,1.8,6.8,3.7,7.2l34.2,3.2c0,0,5.6-5.8,2.1-10.8c-3-4.1-12.2-11.1-15-13.2
	c-0.2-0.2-0.4-0.5-0.6-0.7c-0.1-0.3-0.2-0.6-0.1-0.9l1.5-12.4c-4.6,1-9.4,1.2-14,0.6C91.6,266,88.6,263.8,88.6,263.8z"/>
<path class="st1" d="M87,294l-0.6,3.7c-0.2,0.9,0,1.7,0.5,2.5c0.4,0.7,1.1,1.3,2,1.6l6.2,1.9c3.5,1.1,5.6-2,11.4-0.2
	c3.5,1.1,9.3,2.4,13.3,3.3c1.2,0.3,2.5,0.1,3.6-0.4s2-1.5,2.5-2.6l1-2.2c0,0-6.4,1.3-12.1-0.5C101.8,297.1,88.8,301.4,87,294z"/>
<path class="st1" d="M114.3,282c0,0-6.8,1.6-9,4.7c-0.8,1.1-1.5,2.2-2.1,3.4c-0.3,0.5-0.3,1.1-0.1,1.7c0.2,0.6,0.6,1,1.1,1.3
	l1.7,0.9c0.5,0.3,1.1,0.4,1.7,0.2c0.6-0.1,1-0.5,1.4-1c1.2-1.7,3-4.2,4.9-5.2c1.8-0.9,3.7-1.6,5.6-2L114.3,282z"/>
<path class="st1" d="M112.2,271.4c0,0-7.6,0.9-12.2,0.6c-0.6,0-1.3,0.2-1.7,0.6s-0.8,1-0.8,1.7l-0.1,0.6c0,0.3,0,0.6,0.1,1
	c0.1,0.3,0.2,0.6,0.4,0.9s0.5,0.5,0.7,0.6c0.3,0.2,0.6,0.3,0.9,0.3h0.4l11.9-0.8L112.2,271.4z"/>
<path class="st4" d="M187.1,226.2l22.6,20c1.5,1.3,6.4,2.9,7.9,1.5l23.9-24.9c0,0-1-8.1-7.1-8.3c-5.1-0.3-16.2,2.6-19.6,3.5
	c-0.3,0.1-0.6,0.1-0.9,0c-0.3-0.1-0.6-0.2-0.8-0.5l-8.7-9c-2.1,4.2-4.9,8.1-8.3,11.4C190.7,225.2,187.1,226.2,187.1,226.2z"/>
<path class="st1" d="M209.7,246.3l2.4,2.8c0.6,0.7,1.3,1.1,2.2,1.2c0.8,0.1,1.7-0.1,2.4-0.5l5.4-3.7c3-2.1,2-5.7,6.9-9.1
	c3.1-2.1,7.7-5.8,10.9-8.3c1-0.8,1.6-1.9,1.9-3.1c0.3-1.2,0.1-2.5-0.5-3.6l-1.1-2.2c0,0-3,5.8-8,9.1
	C221.3,236.5,216.6,249.5,209.7,246.3z"/>
<path class="st1" d="M217.4,217.4c0,0-2.9,6.4-1.9,10c0.3,1.3,0.8,2.5,1.3,3.7c0.3,0.5,0.7,0.9,1.2,1.2c0.5,0.2,1.2,0.2,1.7,0
	l1.7-0.7c0.5-0.2,1-0.6,1.2-1.2c0.2-0.5,0.3-1.1,0.1-1.7c-0.6-1.9-1.4-5-1-7.1c0.4-2,1-3.9,2-5.7L217.4,217.4z"/>
<path class="st1" d="M207.7,212.4c0,0-4,6.6-7.2,10c-0.4,0.5-0.7,1.1-0.6,1.7c0,0.6,0.3,1.2,0.8,1.7l0.4,0.4
	c0.2,0.2,0.5,0.4,0.8,0.5c0.3,0.1,0.6,0.2,0.9,0.2c0.3,0,0.6-0.1,0.9-0.2s0.6-0.3,0.8-0.6c0.1-0.1,0.2-0.2,0.3-0.3l6.8-9.9
	L207.7,212.4z"/>
<g>
	<g>
		<path class="st8" d="M79.2,225.2C79.2,225.2,79.2,225.1,79.2,225.2c-0.1-0.1-0.1-0.1-0.1-0.1l-0.1-1.1c0,0,0-0.1,0-0.1
			c0,0,0,0,0.1-0.1l3.7-1.2l-3.7-0.5c0,0-0.1,0-0.1,0c0,0,0,0,0-0.1l-0.1-1.6c0,0,0,0,0,0c0,0,0,0,0,0s0,0,0,0c0,0,0,0,0,0
			c0,0,0,0,0,0l5.7,1.2c0,0,0.1,0,0.1,0.1c0,0,0,0.1,0,0.1l0.1,1.4c0,0,0,0.1,0,0.1c0,0,0,0-0.1,0.1l-3.4,1.1l3.5,0.7
			c0,0,0.1,0,0.1,0c0,0,0,0.1,0,0.1l0.1,1.4c0,0,0,0.1,0,0.1c0,0,0,0-0.1,0.1l-5.5,1.9c0,0,0,0,0,0c0,0,0,0,0,0c0,0,0,0,0,0
			c0,0,0,0,0,0l-0.1-1.6c0,0,0-0.1,0-0.1c0,0,0,0,0.1,0l3.4-1L79.2,225.2z"/>
	</g>
	<g>
		<path class="st8" d="M75.8,219c0-0.1,0-0.2,0-0.4c0-0.1,0.1-0.2,0.2-0.3c0.1-0.1,0.2-0.2,0.3-0.2c0.1-0.1,0.2-0.1,0.3-0.1
			c0,0,0.1,0,0.1,0c0.2,0,0.5,0,0.7,0.2s0.3,0.4,0.4,0.6c0,0,0,0.1,0,0.1c0,0.3,0,0.5-0.2,0.7s-0.4,0.3-0.6,0.4l-0.1,0
			c-0.2,0-0.5,0-0.7-0.2c-0.2-0.2-0.3-0.4-0.4-0.6C75.8,219.1,75.8,219.1,75.8,219z M84.4,217.6C84.4,217.6,84.4,217.6,84.4,217.6
			c0.1,0,0.1,0.1,0.1,0.1l0.1,1.3c0,0,0,0,0,0c0,0,0,0,0,0c0,0,0,0,0,0c0,0,0,0,0,0l-5.6,0.4c0,0-0.1,0-0.1,0s0,0,0-0.1l-0.1-1.4
			c0,0,0-0.1,0-0.1c0,0,0,0,0.1,0L84.4,217.6z"/>
	</g>
	<g>
		<path class="st8" d="M78.7,216.6C78.6,216.6,78.6,216.6,78.7,216.6c-0.1-0.1-0.1-0.1-0.1-0.1l-0.1-1.1c0,0,0-0.1,0-0.1
			c0,0,0-0.1,0.1-0.1l0.5-0.2c-0.3-0.2-0.5-0.4-0.7-0.7c-0.2-0.3-0.3-0.6-0.3-1c-0.1-1.3,0.8-2.3,2.4-2.4l3.3-0.3c0,0,0,0,0,0
			c0,0,0,0,0,0c0,0,0,0,0,0c0,0,0,0,0,0l0.1,1.4c0,0,0,0,0,0s0,0,0,0c0,0,0,0,0,0c0,0,0,0,0,0l-2.9,0.2c-0.9,0.1-1.3,0.6-1.3,1.2
			c0,0.6,0.6,1.1,1.6,1l2.7-0.2c0,0,0.1,0,0.1,0c0,0,0,0,0,0.1l0.1,1.4c0,0.1,0,0.1-0.1,0.1L78.7,216.6z"/>
	</g>
	<g>
		<path class="st8" d="M81.5,207.7l2.1,0.6c0,0,0,0,0.1,0c0,0,0,0,0,0.1l0.1,1.4c0,0.1,0,0.1-0.1,0.1l-8.5-2.3c0,0-0.1,0-0.1-0.1
			c0,0,0-0.1,0-0.1l-0.1-1.5c0,0,0-0.1,0-0.1s0-0.1,0.1-0.1l7.9-4c0.1,0,0.1,0,0.1,0.1l0.1,1.4c0,0,0,0.1-0.1,0.1l-1.9,1L81.5,207.7
			z M80,207.3l-0.2-2.2l-2.7,1.4L80,207.3z"/>
	</g>
	<g>
		<path class="st8" d="M81.8,197c0.3,0.2,0.6,0.5,0.7,0.8c0.2,0.3,0.3,0.7,0.3,1c0.2,1.3-0.7,2.3-2.4,2.5l-3.2,0.4c0,0-0.1,0-0.1,0
			c0,0,0,0-0.1-0.1l-0.2-1.4c0,0,0-0.1,0-0.1c0,0,0,0,0.1,0l2.9-0.3c1-0.1,1.4-0.6,1.3-1.3c-0.1-0.6-0.6-1.1-1.8-1l-2.7,0.3
			c-0.1,0-0.1,0-0.2-0.1l-0.2-1.3c0,0,0,0,0,0s0,0,0,0c0,0,0,0,0,0c0,0,0,0,0,0l5.6-0.7c0,0,0.1,0,0.1,0c0,0,0,0.1,0,0.1l0.1,1.1
			c0,0,0,0.1,0,0.1c0,0,0,0.1-0.1,0.1L81.8,197z"/>
	</g>
	<g>
		<path class="st8" d="M80.2,191.9c0-0.2-0.1-0.3-0.2-0.4c0,0,0,0,0,0c0,0,0,0,0,0s0,0,0,0c0,0,0,0,0,0l1.1-0.5c0,0,0,0,0,0
			c0,0,0,0,0.1,0c0,0,0,0,0.1,0c0,0,0,0,0,0c0.3,0.3,0.5,0.8,0.6,1.2c0.1,1.1-0.5,1.8-1.7,1.9l-2.5,0.3l0.1,0.7c0,0,0,0.1,0,0.1
			c0,0,0,0-0.1,0l-1.2,0.2c0,0-0.1,0-0.1,0c0,0,0-0.1,0-0.1l-0.1-0.7l-1.7,0.2c0,0,0,0,0,0c0,0,0,0,0,0c0,0,0,0,0,0c0,0,0,0,0,0
			l-0.2-1.3c0,0,0,0,0,0c0,0,0,0,0,0c0,0,0,0,0,0c0,0,0,0,0,0l0,0l1.7-0.2l-0.2-1.1c0-0.1,0-0.1,0.1-0.1l1.2-0.2c0,0,0.1,0,0.1,0
			c0,0,0,0,0,0.1l0.2,1.1l1.6-0.2C80,192.3,80.3,192.2,80.2,191.9z"/>
	</g>
	<g>
		<path class="st8" d="M75.1,188.1c-0.1-0.6,0-1.2,0.2-1.8c0.2-0.6,0.7-1,1.2-1.3c0.5-0.3,1.1-0.5,1.7-0.5c0.6,0,1.2,0.2,1.7,0.6
			c0.5,0.4,0.9,0.8,1.1,1.4c0.2,0.6,0.3,1.2,0.1,1.8c-0.1,0.6-0.4,1.1-0.9,1.6c-0.4,0.4-1,0.7-1.6,0.8l-0.1,0
			c-0.4,0.1-0.8,0.1-1.1,0c-0.4-0.1-0.7-0.2-1.1-0.4c-0.3-0.2-0.6-0.5-0.8-0.8c-0.2-0.3-0.4-0.7-0.5-1
			C75.1,188.3,75.1,188.2,75.1,188.1z M79.6,187.4c0-0.3-0.2-0.6-0.4-0.8c-0.2-0.2-0.4-0.4-0.7-0.5c-0.3-0.1-0.6-0.1-0.9,0
			c-0.3,0.1-0.5,0.3-0.7,0.5c-0.2,0.2-0.3,0.5-0.3,0.8c0,0.3,0.1,0.6,0.2,0.8c0.1,0.3,0.4,0.5,0.6,0.6c0.3,0.1,0.6,0.2,0.8,0.1l0,0
			c0.2,0,0.4-0.1,0.5-0.1c0.2-0.1,0.3-0.2,0.4-0.3c0.1-0.1,0.2-0.3,0.3-0.5c0.1-0.2,0.1-0.4,0.1-0.5
			C79.6,187.5,79.6,187.4,79.6,187.4z"/>
	</g>
	<g>
		<path class="st8" d="M83,182.6l-8.2,1.5c0,0,0,0-0.1,0c0,0,0,0,0,0c0,0,0,0,0,0c0,0,0,0,0,0l-0.2-0.9c0,0,0-0.1,0-0.1
			c0,0,0-0.1,0.1-0.1l0.6-0.3c-0.3-0.1-0.6-0.4-0.8-0.6c-0.2-0.3-0.3-0.6-0.4-0.9c-0.1-0.8,0-1.6,0.5-2.3c0.5-0.7,1.2-1.1,2-1.3
			c0.8-0.1,1.6,0,2.3,0.5c0.7,0.5,1.1,1.2,1.3,2c0.1,0.3,0.1,0.6,0,0.9c-0.1,0.3-0.2,0.6-0.4,0.8l3.2-0.6c0,0,0,0,0,0c0,0,0,0,0,0
			c0,0,0,0,0,0c0,0,0,0,0,0l0.3,1.3c0,0,0,0,0,0c0,0,0,0,0,0C83.1,182.6,83.1,182.6,83,182.6C83.1,182.6,83,182.6,83,182.6z
			 M78.4,180.3c-0.1-0.3-0.2-0.6-0.4-0.8s-0.5-0.4-0.7-0.4c-0.3-0.1-0.6,0-0.9,0.1c-0.3,0.1-0.5,0.3-0.7,0.5
			c-0.2,0.2-0.3,0.5-0.3,0.8c0,0.3,0.1,0.6,0.2,0.8s0.4,0.4,0.7,0.6c0.3,0.1,0.6,0.2,0.9,0.1c0.4,0,0.7-0.2,0.9-0.5
			c0.2-0.3,0.3-0.7,0.3-1C78.4,180.4,78.4,180.3,78.4,180.3z"/>
	</g>
	<g>
		<path class="st8" d="M70.3,176.8c0-0.1,0-0.3,0-0.4c0-0.1,0.1-0.3,0.1-0.4c0.1-0.1,0.2-0.2,0.3-0.3c0.1-0.1,0.2-0.1,0.4-0.2
			c0.1,0,0.3,0,0.4,0c0.1,0,0.3,0.1,0.4,0.2c0.1,0.1,0.2,0.2,0.3,0.3c0.1,0.1,0.1,0.2,0.1,0.4c0,0.1,0,0.3,0,0.4
			c0,0.1-0.1,0.3-0.1,0.4c-0.1,0.1-0.2,0.2-0.3,0.3c-0.1,0.1-0.2,0.1-0.4,0.2c-0.1,0-0.3,0-0.4,0c-0.1,0-0.3-0.1-0.4-0.2
			c-0.1-0.1-0.2-0.2-0.3-0.3C70.3,177.1,70.3,177,70.3,176.8z M78.6,174.3C78.6,174.3,78.6,174.3,78.6,174.3c0.1,0,0.1,0.1,0.2,0.1
			l0.3,1.3c0,0,0,0,0,0s0,0,0,0c0,0,0,0,0,0c0,0,0,0,0,0l-5.5,1.1c-0.1,0-0.1,0-0.2-0.1l-0.3-1.3c0,0,0-0.1,0-0.1c0,0,0,0,0.1,0
			L78.6,174.3z"/>
	</g>
	<g>
		<path class="st8" d="M77.9,171.2C77.9,171.2,77.9,171.2,77.9,171.2C77.9,171.2,77.9,171.2,77.9,171.2c0.1,0,0.1,0,0.1,0
			c0,0,0,0,0,0l0.3,1.3c0,0,0,0.1,0,0.1c0,0,0,0-0.1,0.1l-8.4,1.9c0,0,0,0,0,0c0,0,0,0,0,0c0,0,0,0,0,0c0,0,0,0,0,0l-0.3-1.3
			c0,0,0,0,0,0c0,0,0,0,0,0c0,0,0,0,0,0c0,0,0,0,0,0L77.9,171.2z"/>
	</g>
	<g>
		<path class="st8" d="M71.1,168.4c-0.2-0.6-0.1-1.2,0-1.8c0.2-0.6,0.5-1.1,1-1.5c0.5-0.4,1.1-0.6,1.7-0.6c0.6,0,1.2,0.1,1.7,0.4
			c0.5,0.3,1,0.8,1.2,1.3c0.3,0.5,0.4,1.2,0.3,1.8c-0.1,0.6-0.3,1.2-0.7,1.6c-0.4,0.5-0.9,0.8-1.5,1c-0.4,0.1-0.7,0.2-1.1,0.1
			c-0.4,0-0.8-0.1-1.1-0.3c-0.3-0.2-0.6-0.4-0.9-0.7c-0.2-0.3-0.4-0.6-0.6-1C71.2,168.6,71.1,168.5,71.1,168.4z M75.5,167.3
			c0-0.2-0.1-0.4-0.3-0.5c-0.1-0.2-0.3-0.3-0.4-0.4c-0.2-0.1-0.4-0.2-0.5-0.2c-0.2,0-0.4,0-0.6,0c-0.2,0.1-0.4,0.1-0.5,0.3
			s-0.3,0.3-0.4,0.4c-0.1,0.2-0.2,0.4-0.2,0.6s0,0.4,0,0.6c0.1,0.4,0.4,0.7,0.7,0.9c0.3,0.2,0.7,0.2,1.1,0.1
			c0.4-0.1,0.7-0.3,0.9-0.7C75.5,168,75.6,167.6,75.5,167.3z"/>
	</g>
	<g>
		<path class="st8" d="M73.5,160.7c-0.1-0.1-0.2-0.3-0.3-0.4c0,0,0-0.1,0-0.1c0,0,0-0.1,0-0.1l1-0.7c0.1-0.1,0.1-0.1,0.2,0
			c0.4,0.3,0.6,0.7,0.8,1.1c0.3,1-0.2,1.9-1.4,2.2l-2.4,0.8l0.2,0.7c0,0,0,0.1,0,0.1c0,0,0,0.1,0,0.1l-1.2,0.4c0,0,0,0,0,0
			c0,0,0,0,0,0c0,0,0,0,0,0c0,0,0,0,0,0l-0.2-0.7l-1.7,0.5c0,0,0,0-0.1,0c0,0-0.1,0-0.1,0l-0.4-1.3c0,0,0,0,0,0c0,0,0,0,0,0
			c0,0,0,0,0,0c0,0,0,0,0,0l0,0l1.7-0.6l-0.4-1.1c0,0,0-0.1,0-0.1c0,0,0-0.1,0.1-0.1l1.2-0.4c0,0,0,0,0,0c0,0,0,0,0,0c0,0,0,0,0,0
			c0,0,0,0,0,0l0.4,1.1l1.5-0.5C73.3,161.2,73.6,161.1,73.5,160.7z"/>
	</g>
	<g>
		<path class="st8" d="M71.8,155.9c-0.2-0.4-0.5-0.8-0.8-1c0,0,0,0-0.1,0c0,0,0,0,0,0c0,0,0,0,0-0.1c0,0,0,0,0-0.1l0.5-1.1
			c0,0,0-0.1,0.1-0.1c0,0,0.1,0,0.1,0c0.4,0.2,0.8,0.4,1,0.8c0.3,0.3,0.5,0.7,0.7,1.1c0.3,0.7,0.3,1.5-0.1,2.3
			c-0.3,0.7-0.9,1.3-1.6,1.6s-1.5,0.3-2.3,0.1c-0.7-0.3-1.3-0.8-1.7-1.5c-0.7-1.7-0.2-3.2,2.1-4.2c0,0,0.1,0,0.1,0c0,0,0.1,0,0.1,0
			l1.7,3.9c0.2-0.2,0.4-0.5,0.4-0.8C72,156.5,72,156.2,71.8,155.9z M69.4,155.6c-0.2,0.2-0.4,0.5-0.5,0.8c-0.1,0.3-0.1,0.6,0.1,0.9
			c0.1,0.3,0.3,0.5,0.6,0.7c0.3,0.2,0.6,0.2,0.9,0.2L69.4,155.6z"/>
	</g>
</g>
<path class="st1" d="M137.6,109L126,92.9c0,0-31.5,11.2-47.7,8.8C62.1,99.2,34.9,90,34.9,90s-5.1,18.4,0,29c5.1,10.6,6,10.5,6,10.5
	s28.7,0.4,49.9-4.7C112,119.7,137.6,109,137.6,109z"/>
<path class="st1" d="M154.1,90.9c-4.3,5.2-10.4,8.5-17.1,9.2c-6.7,0.7-13.4-1.3-18.6-5.5c-5.2-4.3-8.5-10.4-9.2-17.1
	c-0.7-6.7,1.3-13.4,5.5-18.7L131.6,38l39.3,32.1L154.1,90.9z"/>
<path class="st9" d="M153.8,22.5c18.6-15.5,38.5,6.4,38.6,6.6c0.5,3.4,0.3,6.9-0.6,10.2c-0.9,3.3-2.4,6.4-4.6,9.2l-16.5,21
	l-19.9-15.8L171.1,69C171.1,69,135.1,38,153.8,22.5z"/>
<path class="st10" d="M131,38L131,38C131.1,38,131.1,38,131,38L131,38z"/>
<path class="st1" d="M130.8,38.5l0.2-0.5l19.9,15.7L130.8,38.5z"/>
<path class="st8" d="M183.1,12.7c5.1,4,8.5,9.9,9.4,16.4c-0.2-0.2-20-22-38.6-6.6c-18.6,15.5,17.3,46.5,17.3,46.5l-20.2-15.3
	L131,38.1c0,0,0-0.1,0.1-0.1L147.5,17c4.2-5.3,10.2-8.7,16.9-9.5C171.1,6.7,177.8,8.6,183.1,12.7z"/>
<path class="st0" d="M127.8,96.3c0,0,6.5-3.4,8.7-5c2.2-1.5,5-6.9,6.2-9c0.5-1,1.1-1,1.6-0.8c0.3,0.2,0.6,0.4,0.7,0.7
	s0.2,0.7,0.1,1.1l-1.5,5c0,0,4.9-1.5,7.1-3.1c2.2-1.6,3.8-4.8,4.9-4.2c0.5,0.3,0.9,0.9,1.1,1.5s0.1,1.3-0.1,1.8
	c-0.6,1.1,1.1,0.6,1.5,2.2c0.4,1.6-0.1,2.7-0.1,5.4c-0.1,2.7,0.4,4.3-1.2,4.8c-1.7,0.5-6,3.6-10.3,4.1c-4.3,0.5-11.4,6.2-11.4,6.2
	L127.8,96.3z"/>
</svg>
