<?xml version="1.0" encoding="utf-8"?>
<!-- Generator: Adobe Illustrator 24.0.2, SVG Export Plug-In . SVG Version: 6.00 Build 0)  -->
<svg version="1.1" id="Calque_1" xmlns="http://www.w3.org/2000/svg" xmlns:xlink="http://www.w3.org/1999/xlink" x="0px" y="0px"
	 viewBox="0 0 727 729.6" style="enable-background:new 0 0 727 729.6;" xml:space="preserve">
<style type="text/css">
	.st0{opacity:0.78;}
	.st1{fill:#976AEA;}
</style>
<title>stars</title>
<g id="Calque_2_1_">
	<g id="fond_stellar" class="st0">
		<path class="st1" d="M42.5,498.8c0.8,0,1.5-0.7,1.5-1.5s-0.7-1.5-1.5-1.5s-1.5,0.7-1.5,1.5S41.6,498.8,42.5,498.8z"/>
		<path class="st1" d="M205.2,714.5h2.5c0.4,0,0.8-0.2,1.1-0.4c0.3-0.3,0.4-0.7,0.4-1.1c0-0.8-0.7-1.5-1.5-1.5h-2.5
			c-0.8,0-1.5,0.7-1.5,1.5c0,0.4,0.2,0.8,0.4,1.1C204.4,714.3,204.8,714.5,205.2,714.5z"/>
		<path class="st1" d="M10.1,617.6l2.5,2.4c0.6,0.6,1.5,0.6,2.1,0c0.3-0.3,0.4-0.6,0.4-1c0-0.4-0.2-0.8-0.4-1.1l-2.5-2.5
			c-0.3-0.3-0.7-0.4-1.1-0.4c-0.4,0-0.8,0.2-1.1,0.4c-0.3,0.3-0.4,0.7-0.4,1.1C9.6,616.9,9.8,617.3,10.1,617.6L10.1,617.6z"/>
		<path class="st1" d="M61.7,676.9c0.8,0,1.5-0.7,1.5-1.5s-0.7-1.5-1.5-1.5s-1.5,0.7-1.5,1.5S60.9,676.9,61.7,676.9z"/>
		<path class="st1" d="M44.3,409l-17.1,10c-0.7,0.4-0.9,1.4-0.5,2.1c0.4,0.7,1.3,0.9,2,0.5l17.1-10.1c0.6-0.6,0.7-1.5,0.1-2.1
			C45.6,409,44.9,408.8,44.3,409z"/>
		<path class="st1" d="M45.4,241.7l4.9,7.4c0.4,0.7,1.3,1,2.1,0.5c0.7-0.4,1-1.3,0.5-2.1l-4.9-7.4c-0.4-0.7-1.3-1-2-0.6
			C45.2,240,45,240.9,45.4,241.7C45.4,241.7,45.4,241.7,45.4,241.7L45.4,241.7z"/>
		<path class="st1" d="M588.7,83.9c0.8,0,1.5-0.7,1.5-1.5s-0.7-1.5-1.5-1.5s-1.5,0.7-1.5,1.5S587.9,83.9,588.7,83.9z"/>
		<path class="st1" d="M444.5,132c0.8,0,1.5-0.7,1.5-1.5s-0.7-1.5-1.5-1.5s-1.5,0.7-1.5,1.5S443.7,132,444.5,132z"/>
		<path class="st1" d="M324.3,48.8c0.8,0,1.5-0.7,1.5-1.5s-0.7-1.5-1.5-1.5s-1.5,0.7-1.5,1.5S323.4,48.8,324.3,48.8z"/>
		<path class="st1" d="M86.3,528.1h1.8c0.4,0,0.8-0.2,1.1-0.4c0.1-0.1,0.3-0.3,0.3-0.5c0.1-0.2,0.1-0.4,0.1-0.6
			c0-0.8-0.7-1.5-1.5-1.5h-1.8c-0.4,0-0.8,0.2-1.1,0.4c-0.1,0.1-0.2,0.3-0.3,0.5c-0.1,0.2-0.1,0.4-0.1,0.6c0,0.4,0.2,0.8,0.4,1.1
			C85.5,527.9,85.9,528.1,86.3,528.1z"/>
		<path class="st1" d="M331.7,659.1c0.8,0,1.5-0.7,1.5-1.5s-0.7-1.5-1.5-1.5s-1.5,0.7-1.5,1.5S330.8,659.1,331.7,659.1z"/>
		<path class="st1" d="M211.3,49.6c0.8,0,1.5-0.7,1.5-1.5s-0.7-1.5-1.5-1.5s-1.5,0.7-1.5,1.5S210.5,49.6,211.3,49.6z"/>
		<path class="st1" d="M596.1,638.7h1.9c0.4,0,0.8-0.2,1.1-0.4c0.1-0.1,0.3-0.3,0.3-0.5c0.1-0.2,0.1-0.4,0.1-0.6
			c0-0.4-0.2-0.8-0.4-1.1c-0.3-0.3-0.7-0.4-1.1-0.4h-1.8c-0.4,0-0.8,0.2-1.1,0.4c-0.1,0.1-0.3,0.3-0.3,0.5c-0.1,0.2-0.1,0.4-0.1,0.6
			C594.6,638.1,595.3,638.7,596.1,638.7C596.1,638.7,596.1,638.7,596.1,638.7L596.1,638.7z"/>
		<path class="st1" d="M529.5,710.9h1.8c0.4,0,0.8-0.2,1.1-0.4c0.1-0.1,0.2-0.3,0.3-0.5c0.1-0.2,0.1-0.4,0.1-0.6
			c0-0.4-0.2-0.8-0.4-1.1c-0.3-0.3-0.7-0.4-1.1-0.4h-1.8c-0.4,0-0.8,0.2-1.1,0.4c-0.1,0.1-0.3,0.3-0.3,0.5c-0.1,0.2-0.1,0.4-0.1,0.6
			c0,0.4,0.2,0.8,0.4,1.1C528.8,710.7,529.2,710.9,529.5,710.9z"/>
		<path class="st1" d="M699.7,640.6c0.8,0,1.5-0.7,1.5-1.5s-0.7-1.5-1.5-1.5s-1.5,0.7-1.5,1.5S698.9,640.6,699.7,640.6z"/>
		<path class="st1" d="M725.6,145c0.8,0,1.5-0.7,1.5-1.5s-0.7-1.5-1.5-1.5s-1.5,0.7-1.5,1.5S724.7,145,725.6,145z"/>
		<path class="st1" d="M15.2,334.7c0.8,0,1.5-0.7,1.5-1.5s-0.7-1.5-1.5-1.5c-0.8,0-1.5,0.7-1.5,1.5S14.4,334.7,15.2,334.7z"/>
		<path class="st1" d="M159.7,70.5c0.8,0,1.5-0.7,1.5-1.5s-0.7-1.5-1.5-1.5s-1.5,0.7-1.5,1.5S158.9,70.5,159.7,70.5z"/>
		<path class="st1" d="M54.6,562.1c0.8,0,1.5-0.7,1.5-1.5s-0.7-1.5-1.5-1.5s-1.5,0.7-1.5,1.5S53.8,562.1,54.6,562.1z"/>
		<path class="st1" d="M105,327c0.8,0,1.5-0.7,1.5-1.5s-0.7-1.5-1.5-1.5s-1.5,0.7-1.5,1.5S104.2,327,105,327z"/>
		<path class="st1" d="M148.8,356.3h1.8c0.4,0,0.8-0.2,1.1-0.4c0.1-0.1,0.3-0.3,0.3-0.5c0.1-0.2,0.1-0.4,0.1-0.6
			c0-0.8-0.7-1.5-1.5-1.5h-1.8c-0.4,0-0.8,0.2-1.1,0.4c-0.1,0.1-0.2,0.3-0.3,0.5c-0.1,0.2-0.1,0.4-0.1,0.6c0,0.4,0.2,0.8,0.4,1.1
			C148.1,356.1,148.4,356.3,148.8,356.3z"/>
		<path class="st1" d="M117.1,390.3c0.8,0,1.5-0.7,1.5-1.5s-0.7-1.5-1.5-1.5c-0.8,0-1.5,0.7-1.5,1.5S116.3,390.3,117.1,390.3z"/>
		<path class="st1" d="M88.6,188.6c0.8,0,1.5-0.7,1.5-1.5s-0.7-1.5-1.5-1.5s-1.5,0.7-1.5,1.5S87.8,188.6,88.6,188.6z"/>
		<path class="st1" d="M370.5,688.7c0.8,0,1.5-0.7,1.5-1.5s-0.7-1.5-1.5-1.5s-1.5,0.7-1.5,1.5S369.7,688.7,370.5,688.7z"/>
		<path class="st1" d="M370.4,9.6l3.7-7.4c0.4-0.7,0.2-1.6-0.5-2c-0.7-0.4-1.6-0.2-2.1,0.5l-3.7,7.4c-0.4,0.7-0.2,1.6,0.5,2.1
			S370,10.4,370.4,9.6z"/>
		<path class="st1" d="M631.3,109.8c0.8,0,1.5-0.7,1.5-1.5s-0.7-1.5-1.5-1.5s-1.5,0.7-1.5,1.5S630.4,109.8,631.3,109.8z"/>
		<path class="st1" d="M664.5,220.8c0.8,0,1.5-0.7,1.5-1.5s-0.7-1.5-1.5-1.5s-1.5,0.7-1.5,1.5S663.7,220.8,664.5,220.8z"/>
		<path class="st1" d="M699.7,352.1c0.8,0,1.5-0.7,1.5-1.5s-0.7-1.5-1.5-1.5s-1.5,0.7-1.5,1.5S698.9,352.1,699.7,352.1z"/>
		<path class="st1" d="M125.2,113.5c0.8,0,1.5-0.7,1.5-1.5s-0.7-1.5-1.5-1.5s-1.5,0.7-1.5,1.5S124.4,113.5,125.2,113.5z"/>
		<path class="st1" d="M690.4,585.1c0.8,0,1.5-0.7,1.5-1.5s-0.7-1.5-1.5-1.5s-1.5,0.7-1.5,1.5S689.6,585.1,690.4,585.1z"/>
		<path class="st1" d="M522.2,605.5c0.8,0,1.5-0.7,1.5-1.5s-0.7-1.5-1.5-1.5s-1.5,0.7-1.5,1.5S521.3,605.5,522.2,605.5z"/>
		<path class="st1" d="M593.2,492.4l-5.5,9.2c-0.4,0.7-0.2,1.6,0.5,2.1c0.7,0.4,1.6,0.2,2.1-0.5c0,0,0-0.1,0.1-0.1l5.5-9.2
			c0.4-0.7,0.1-1.6-0.6-2C594.5,491.5,593.7,491.7,593.2,492.4z"/>
		<path class="st1" d="M692.3,71c0.8,0,1.5-0.7,1.5-1.5s-0.7-1.5-1.5-1.5s-1.5,0.7-1.5,1.5S691.5,71,692.3,71z"/>
		<path class="st1" d="M507.4,72.8c0.8,0,1.5-0.7,1.5-1.5s-0.7-1.5-1.5-1.5s-1.5,0.7-1.5,1.5S506.5,72.8,507.4,72.8z"/>
		<path class="st1" d="M535.1,137.6c0.8,0,1.5-0.7,1.5-1.5s-0.7-1.5-1.5-1.5s-1.5,0.7-1.5,1.5S534.3,137.6,535.1,137.6z"/>
		<path class="st1" d="M43.1,138.5l-5.5,5.6c-0.6,0.6-0.6,1.5,0,2.1c0.6,0.6,1.5,0.6,2.1,0l5.5-5.6c0.6-0.6,0.6-1.5,0.1-2.1
			C44.8,137.9,43.8,137.9,43.1,138.5C43.2,138.5,43.1,138.5,43.1,138.5z"/>
		<path class="st1" d="M243.9,123.9c0.8,0,1.5-0.7,1.5-1.5s-0.7-1.5-1.5-1.5s-1.5,0.7-1.5,1.5S243.1,123.9,243.9,123.9z"/>
		<path class="st1" d="M178.9,119.7h0.8c0.2,0,0.4,0,0.6-0.1c0.2-0.1,0.4-0.2,0.5-0.3c0.1-0.1,0.2-0.3,0.3-0.5
			c0.1-0.2,0.1-0.4,0.1-0.6l-0.1-0.4c-0.1-0.3-0.2-0.5-0.4-0.7l-0.3-0.2c-0.2-0.1-0.5-0.2-0.8-0.2h-0.8c-0.2,0-0.4,0-0.6,0.1
			c-0.2,0.1-0.4,0.2-0.5,0.3c-0.1,0.1-0.3,0.3-0.3,0.5c-0.1,0.2-0.1,0.4-0.1,0.6l0.1,0.4c0.1,0.3,0.2,0.5,0.4,0.7l0.3,0.2
			C178.3,119.6,178.6,119.7,178.9,119.7z"/>
		<path class="st1" d="M232.1,194.9c0.8,0,1.5-0.7,1.5-1.5s-0.7-1.5-1.5-1.5s-1.5,0.7-1.5,1.5S231.3,194.9,232.1,194.9z"/>
		<path class="st1" d="M444.7,41.1l-11.9,12.6c-1.3,1.4,0.8,3.5,2.1,2.1l11.9-12.6C448.1,41.8,446,39.7,444.7,41.1z"/>
		<path class="st1" d="M565.3,236.6l-3.4,6.8c-0.4,0.7-0.2,1.6,0.5,2.1s1.6,0.2,2.1-0.5c0,0,0-0.1,0.1-0.1l3.4-6.8
			c0.4-0.7,0.2-1.6-0.5-2.1C566.6,235.6,565.7,235.8,565.3,236.6L565.3,236.6L565.3,236.6z"/>
		<path class="st1" d="M625.1,384.1L620,379c-0.6-0.6-1.5-0.6-2.1,0c-0.6,0.6-0.6,1.5,0,2.1l5.1,5.1c0.6,0.6,1.6,0.5,2.1-0.1
			C625.7,385.5,625.7,384.7,625.1,384.1L625.1,384.1z"/>
		<path class="st1" d="M662.9,534.5c0.8,0,1.5-0.7,1.5-1.5s-0.7-1.5-1.5-1.5s-1.5,0.7-1.5,1.5S662.1,534.5,662.9,534.5z"/>
		<path class="st1" d="M524,405.1l-5.5,9.2c-0.4,0.7-0.2,1.6,0.5,2.1c0.7,0.4,1.6,0.2,2.1-0.5c0,0,0-0.1,0.1-0.1l5.5-9.2
			c0.4-0.7,0.1-1.6-0.6-2C525.3,404.3,524.4,404.5,524,405.1z"/>
		<path class="st1" d="M593.6,447.2c0.8,0,1.5-0.7,1.5-1.5s-0.7-1.5-1.5-1.5s-1.5,0.7-1.5,1.5S592.8,447.2,593.6,447.2z"/>
		<path class="st1" d="M412,449.2l-5.5,9.2c-0.4,0.7-0.2,1.6,0.5,2.1c0.7,0.4,1.6,0.2,2.1-0.5c0,0,0-0.1,0.1-0.1l5.5-9.2
			c0.4-0.7,0.1-1.6-0.6-2C413.2,448.3,412.4,448.6,412,449.2z"/>
		<path class="st1" d="M481.6,491.3c0.8,0,1.5-0.7,1.5-1.5s-0.7-1.5-1.5-1.5s-1.5,0.7-1.5,1.5S480.8,491.3,481.6,491.3z"/>
		<path class="st1" d="M405,617.2l-5.5,9.2c-0.4,0.7-0.2,1.6,0.5,2.1c0.7,0.4,1.6,0.2,2.1-0.5c0,0,0-0.1,0.1-0.1l5.5-9.2
			c0.4-0.7,0.1-1.6-0.6-2C406.2,616.3,405.4,616.6,405,617.2z"/>
		<path class="st1" d="M474.6,659.3c0.8,0,1.5-0.7,1.5-1.5c0-0.8-0.7-1.5-1.5-1.5s-1.5,0.7-1.5,1.5
			C473.1,658.6,473.8,659.3,474.6,659.3z"/>
		<path class="st1" d="M260,540.2l-5.5,9.2c-0.4,0.7-0.2,1.6,0.5,2.1c0.7,0.4,1.6,0.2,2.1-0.5c0,0,0-0.1,0.1-0.1l5.5-9.2
			c0.4-0.7,0.1-1.6-0.6-2C261.2,539.3,260.4,539.6,260,540.2z"/>
		<path class="st1" d="M329.6,582.3c0.8,0,1.5-0.7,1.5-1.5c0-0.8-0.7-1.5-1.5-1.5s-1.5,0.7-1.5,1.5
			C328.1,581.6,328.8,582.3,329.6,582.3z"/>
		<path class="st1" d="M693.3,479.1h-0.8c-0.2,0-0.4,0-0.6,0.1c-0.2,0.1-0.3,0.2-0.5,0.3c-0.1,0.1-0.3,0.3-0.3,0.5
			c-0.1,0.2-0.1,0.4-0.1,0.6l0.1,0.4c0.1,0.2,0.2,0.5,0.4,0.7l0.3,0.2c0.2,0.1,0.5,0.2,0.8,0.2h0.8c0.2,0,0.4,0,0.6-0.1
			c0.2-0.1,0.3-0.2,0.5-0.3c0.1-0.1,0.2-0.3,0.3-0.5c0.1-0.2,0.1-0.4,0.1-0.6l-0.1-0.4c-0.1-0.2-0.2-0.5-0.4-0.7l-0.3-0.2
			C693.8,479.2,693.6,479.1,693.3,479.1z"/>
		<path class="st1" d="M330.1,460.1c0.8,0,1.5-0.7,1.5-1.5s-0.7-1.5-1.5-1.5s-1.5,0.7-1.5,1.5S329.2,460.1,330.1,460.1z"/>
		<path class="st1" d="M232.9,367.4l-5.5,9.2c-0.4,0.7-0.2,1.6,0.5,2.1c0.7,0.4,1.6,0.2,2.1-0.5c0,0,0-0.1,0.1-0.1l5.5-9.2
			c0.4-0.7,0.1-1.6-0.6-2C234.2,366.6,233.3,366.8,232.9,367.4z"/>
		<path class="st1" d="M302.5,409.5c0.8,0,1.5-0.7,1.5-1.5s-0.7-1.5-1.5-1.5s-1.5,0.7-1.5,1.5S301.7,409.5,302.5,409.5z"/>
		<path class="st1" d="M332.9,354.1h-0.8c-0.2,0-0.4,0-0.6,0.1c-0.2,0.1-0.3,0.2-0.5,0.3c-0.1,0.1-0.3,0.3-0.3,0.5
			c-0.1,0.2-0.1,0.4-0.1,0.6l0.1,0.4c0.1,0.2,0.2,0.5,0.4,0.7l0.3,0.2c0.2,0.1,0.5,0.2,0.8,0.2h0.8c0.2,0,0.4,0,0.6-0.1
			c0.2-0.1,0.3-0.2,0.5-0.3c0.1-0.1,0.2-0.3,0.3-0.5c0.1-0.2,0.1-0.4,0.1-0.6l-0.1-0.4c-0.1-0.2-0.2-0.5-0.4-0.7l-0.3-0.2
			C333.4,354.2,333.2,354.1,332.9,354.1z"/>
		<path class="st1" d="M403.6,345.2c0.8,0,1.5-0.7,1.5-1.5s-0.7-1.5-1.5-1.5s-1.5,0.7-1.5,1.5S402.7,345.2,403.6,345.2z"/>
		<path class="st1" d="M455.1,406.1c0.8,0,1.5-0.7,1.5-1.5s-0.7-1.5-1.5-1.5s-1.5,0.7-1.5,1.5S454.3,406.1,455.1,406.1z"/>
		<path class="st1" d="M519.1,211.1v-0.8c0-0.2,0-0.4-0.1-0.6c-0.1-0.2-0.2-0.4-0.3-0.5c-0.1-0.1-0.3-0.3-0.5-0.3
			c-0.2-0.1-0.4-0.1-0.6-0.1l-0.4,0.1c-0.3,0.1-0.5,0.2-0.7,0.4l-0.2,0.3c-0.1,0.2-0.2,0.5-0.2,0.8v0.8c0,0.2,0,0.4,0.1,0.6
			c0.1,0.2,0.2,0.4,0.3,0.5c0.1,0.1,0.3,0.2,0.5,0.3c0.2,0.1,0.4,0.1,0.6,0.1h0.4c0.2-0.1,0.5-0.2,0.7-0.4l0.2-0.3
			C519,211.7,519.1,211.4,519.1,211.1L519.1,211.1z"/>
		<path class="st1" d="M637.8,163.6l-0.8-0.9c-0.1-0.1-0.3-0.2-0.5-0.3c-0.4-0.2-0.8-0.2-1.2,0c-0.2,0.1-0.3,0.2-0.5,0.3l-0.2,0.3
			c-0.1,0.2-0.2,0.5-0.2,0.8v0.4c0.1,0.3,0.2,0.5,0.4,0.7l0.8,0.9c0.1,0.1,0.3,0.2,0.5,0.3c0.2,0.1,0.4,0.1,0.6,0.1
			c0.2,0,0.4,0,0.6-0.1c0.2-0.1,0.3-0.2,0.5-0.3l0.2-0.3c0.1-0.2,0.2-0.5,0.2-0.8l0-0.4C638,164,637.9,163.8,637.8,163.6
			L637.8,163.6z"/>
		<path class="st1" d="M607.1,282.7c0.8,0,1.5-0.7,1.5-1.5s-0.7-1.5-1.5-1.5s-1.5,0.7-1.5,1.5S606.3,282.7,607.1,282.7z"/>
		<path class="st1" d="M502.4,343.6c0.8,0,1.5-0.7,1.5-1.5s-0.7-1.5-1.5-1.5s-1.5,0.7-1.5,1.5S501.6,343.6,502.4,343.6z"/>
		<path class="st1" d="M136,249c0.8,0,1.5-0.7,1.5-1.5s-0.7-1.5-1.5-1.5s-1.5,0.7-1.5,1.5S135.2,249,136,249z"/>
		<path class="st1" d="M187.5,309.8c0.8,0,1.5-0.7,1.5-1.5s-0.7-1.5-1.5-1.5s-1.5,0.7-1.5,1.5S186.7,309.8,187.5,309.8z"/>
		<path class="st1" d="M234.8,247.3c0.8,0,1.5-0.7,1.5-1.5s-0.7-1.5-1.5-1.5s-1.5,0.7-1.5,1.5S234,247.3,234.8,247.3z"/>
		<path class="st1" d="M302.2,183.9c0.8,0,1.5-0.7,1.5-1.5s-0.7-1.5-1.5-1.5s-1.5,0.7-1.5,1.5S301.4,183.9,302.2,183.9z"/>
		<path class="st1" d="M332.6,140c0.8,0,1.5-0.7,1.5-1.5s-0.7-1.5-1.5-1.5s-1.5,0.7-1.5,1.5S331.8,140,332.6,140z"/>
		<path class="st1" d="M325.9,310.6c0.8,0,1.5-0.7,1.5-1.5s-0.7-1.5-1.5-1.5s-1.5,0.7-1.5,1.5S325,310.6,325.9,310.6z"/>
		<path class="st1" d="M371.7,522.4l1.7,6.8c0.2,0.8,1.1,1.2,1.8,1c0.8-0.2,1.3-1.1,1-1.8l-1.7-6.8c-0.2-0.8-1-1.3-1.8-1
			C372,520.7,371.5,521.5,371.7,522.4L371.7,522.4z"/>
		<path class="st1" d="M204.9,598.6l-5.9,5.1c-0.6,0.6-0.6,1.5,0,2.1c0.6,0.6,1.5,0.6,2.1,0l5.9-5.1c0.6-0.6,0.6-1.5,0-2.1
			C206.4,598.1,205.4,598.1,204.9,598.6L204.9,598.6z"/>
		<path class="st1" d="M66.9,658.1l-0.8,1.7c-0.1,0.2-0.2,0.4-0.2,0.5c-0.1,0.2-0.1,0.4,0,0.6c0,0.2,0.1,0.4,0.3,0.5
			c0.1,0.2,0.3,0.3,0.4,0.4c0.7,0.4,1.6,0.2,2.1-0.5l0.8-1.7c0.1-0.2,0.2-0.4,0.2-0.6c0-0.2,0-0.4,0-0.6c0-0.2-0.1-0.4-0.3-0.5
			c-0.1-0.2-0.2-0.3-0.4-0.4c-0.3-0.2-0.8-0.3-1.2-0.2C67.5,657.5,67.1,657.7,66.9,658.1L66.9,658.1z"/>
		<path class="st1" d="M140.9,729.6c0.8,0,1.5-0.7,1.5-1.5s-0.7-1.5-1.5-1.5s-1.5,0.7-1.5,1.5S140,729.6,140.9,729.6z"/>
		<path class="st1" d="M91.2,435.2l-3.4,0.8c-0.4,0.1-0.7,0.4-0.9,0.7c-0.4,0.7-0.2,1.6,0.5,2.1c0.4,0.2,0.8,0.3,1.2,0.1l3.4-0.8
			c0.4-0.1,0.7-0.4,0.9-0.7c0.4-0.7,0.2-1.6-0.5-2C92,435.2,91.6,435.1,91.2,435.2z"/>
		<path class="st1" d="M24.9,343.3l-3.4,1.7c-0.3,0.2-0.6,0.5-0.7,0.9c-0.1,0.4,0,0.8,0.1,1.1c0.2,0.3,0.5,0.6,0.9,0.7
			c0.4,0.1,0.8,0,1.2-0.1l3.4-1.7c0.3-0.2,0.6-0.5,0.7-0.9c0.1-0.4,0-0.8-0.1-1.1c-0.2-0.3-0.5-0.6-0.9-0.7
			C25.7,343,25.3,343.1,24.9,343.3L24.9,343.3z"/>
		<path class="st1" d="M8.4,240.9l-2.5-0.8c-0.4-0.1-0.8-0.1-1.1,0.1c-0.3,0.2-0.6,0.5-0.7,0.9c-0.1,0.4-0.1,0.8,0.2,1.2
			c0.2,0.3,0.5,0.6,0.9,0.7l2.5,0.8c0.4,0.1,0.8,0.1,1.2-0.1c0.7-0.4,1-1.3,0.5-2c0,0,0,0,0,0C9.1,241.3,8.8,241.1,8.4,240.9z"/>
		<path class="st1" d="M29.4,182.2c0.8,0,1.5-0.7,1.5-1.5s-0.7-1.5-1.5-1.5s-1.5,0.7-1.5,1.5S28.5,182.2,29.4,182.2L29.4,182.2z"/>
		<path class="st1" d="M47.3,40.1l1.7,5.1c0.3,0.8,1.1,1.2,1.8,1c0.8-0.2,1.2-1.1,1-1.8l-1.7-5.1c-0.3-0.8-1.1-1.2-1.9-1
			C47.5,38.5,47.1,39.3,47.3,40.1L47.3,40.1z"/>
		<path class="st1" d="M394,176.6c0.8,0,1.5-0.7,1.5-1.5s-0.7-1.5-1.5-1.5s-1.5,0.7-1.5,1.5S393.2,176.6,394,176.6z"/>
		<path class="st1" d="M440.2,261.1c0.8,0,1.5-0.7,1.5-1.5s-0.7-1.5-1.5-1.5s-1.5,0.7-1.5,1.5S439.3,261.1,440.2,261.1z"/>
		<path class="st1" d="M371.5,264l1.1,1.1c0.1,0.1,0.3,0.3,0.5,0.3c0.2,0.1,0.4,0.1,0.6,0.1c0.2,0,0.4,0,0.6-0.1
			c0.2-0.1,0.4-0.2,0.5-0.3l0.2-0.3c0.1-0.2,0.2-0.5,0.2-0.8l-0.1-0.4c-0.1-0.2-0.2-0.5-0.4-0.7l-1.1-1.1c-0.1-0.1-0.3-0.3-0.5-0.3
			c-0.4-0.2-0.8-0.2-1.2,0c-0.2,0.1-0.3,0.2-0.5,0.3l-0.2,0.3c-0.1,0.2-0.2,0.5-0.2,0.8l0,0.4C371.2,263.6,371.3,263.8,371.5,264
			L371.5,264z"/>
		<path class="st1" d="M513.4,283.6c0.8,0,1.5-0.7,1.5-1.5s-0.7-1.5-1.5-1.5s-1.5,0.7-1.5,1.5S512.5,283.6,513.4,283.6z"/>
		<path class="st1" d="M247.4,478.2L244,485c-0.4,0.7-0.2,1.6,0.5,2.1s1.6,0.2,2.1-0.5c0,0,0-0.1,0.1-0.1l3.4-6.8
			c0.4-0.7,0.2-1.6-0.5-2.1C248.7,477.3,247.8,477.5,247.4,478.2L247.4,478.2L247.4,478.2z"/>
		<path class="st1" d="M201.2,452.8V452c0-0.2,0-0.4-0.1-0.6c-0.1-0.2-0.2-0.4-0.3-0.5c-0.1-0.1-0.3-0.3-0.5-0.3
			c-0.2-0.1-0.4-0.1-0.6-0.1l-0.4,0c-0.3,0.1-0.5,0.2-0.7,0.4l-0.2,0.3c-0.1,0.2-0.2,0.5-0.2,0.8v0.8c0,0.2,0,0.4,0.1,0.6
			c0.1,0.2,0.2,0.4,0.3,0.5c0.1,0.1,0.3,0.2,0.5,0.3c0.2,0.1,0.4,0.1,0.6,0.1h0.4c0.2-0.1,0.5-0.2,0.7-0.4l0.2-0.3
			C201.1,453.4,201.2,453.1,201.2,452.8L201.2,452.8z"/>
		<path class="st1" d="M195.5,525.3c0.8,0,1.5-0.7,1.5-1.5s-0.7-1.5-1.5-1.5s-1.5,0.7-1.5,1.5S194.6,525.3,195.5,525.3z"/>
	</g>
</g>
</svg>
