<?xml version="1.0" encoding="utf-8"?>
<!-- Generator: Adobe Illustrator 24.0.1, SVG Export Plug-In . SVG Version: 6.00 Build 0)  -->
<svg version="1.1" xmlns="http://www.w3.org/2000/svg" xmlns:xlink="http://www.w3.org/1999/xlink" x="0px" y="0px"
	 viewBox="0 0 174 174" style="enable-background:new 0 0 174 174;" xml:space="preserve">
<style type="text/css">
	.st0{fill-rule:evenodd;clip-rule:evenodd;fill:#FFFFFF;}
	.st1{fill:#DDDDDD;}
	.st2{fill:#FFFFFF;}
	.st3{fill:#7E45E5;}
</style>
<g id="fond">
	<g>
		<path class="st0" d="M0,8c0-4.4,3.6-8,8-8h158c4.4,0,8,3.6,8,8v158c0,4.4-3.6,8-8,8h-24.5H8c-4.4,0-8-3.6-8-8V8z"/>
	</g>
	<g>
		<defs>
			<rect id="SVGID_1_" x="44.7" y="35.9" width="84.7" height="102.1"/>
		</defs>
		<clipPath id="SVGID_2_">
			<use xlink:href="#SVGID_1_"  style="overflow:visible;"/>
		</clipPath>
	</g>
</g>
<g id="Switch_1_">
	<g>
		<path class="st1" d="M67.9,92.1h38.2c6.2,0,12.2,2.4,16.5,6.8c4.4,4.3,6.9,10.2,6.9,16.3c0,6.1-2.5,12-6.9,16.3
			c-4.4,4.3-10.3,6.8-16.5,6.8H67.9c-6.2,0-12.2-2.4-16.5-6.8c-4.4-4.3-6.9-10.2-6.9-16.3c0-6.1,2.5-12,6.9-16.3
			C55.7,94.5,61.7,92.1,67.9,92.1z"/>
		<path class="st2" d="M69.6,133c10,0,18.2-8,18.2-17.9c0-9.9-8.1-17.9-18.2-17.9c-10,0-18.2,8-18.2,17.9
			C51.4,124.9,59.5,133,69.6,133z"/>
	</g>
</g>
<g id="Switch">
	<g>
		<path class="st3" d="M106.1,81.9H67.9c-3.1,0-6.1-0.6-9-1.8c-2.8-1.2-5.4-2.9-7.6-5c-4.4-4.3-6.9-10.2-6.9-16.3l0,0
			c0-6.1,2.5-12,6.9-16.3c4.4-4.3,10.3-6.8,16.5-6.8h38.2c6.2,0,12.2,2.4,16.5,6.8c4.4,4.3,6.9,10.2,6.9,16.3c0,6.1-2.5,12-6.9,16.3
			C118.3,79.5,112.3,81.9,106.1,81.9z"/>
		<path class="st2" d="M104.4,76.9c10,0,18.2-8,18.2-17.9c0-9.9-8.1-17.9-18.2-17.9c-10,0-18.2,8-18.2,17.9
			C86.2,68.9,94.4,76.9,104.4,76.9z"/>
	</g>
</g>
</svg>
