<svg width="40" height="40" viewBox="0 0 40 40" fill="none" xmlns="http://www.w3.org/2000/svg">
<mask id="mask0" mask-type="alpha" maskUnits="userSpaceOnUse" x="0" y="0" width="40" height="40">
<path fill-rule="evenodd" clip-rule="evenodd" d="M20 40C31.0457 40 40 31.0457 40 20C40 8.9543 31.0457 0 20 0C8.9543 0 0 8.9543 0 20C0 31.0457 8.9543 40 20 40Z" fill="white"/>
</mask>
<g mask="url(#mask0)">
<path fill-rule="evenodd" clip-rule="evenodd" d="M20 40C31.0457 40 40 31.0457 40 20C40 8.9543 31.0457 0 20 0C8.9543 0 0 8.9543 0 20C0 31.0457 8.9543 40 20 40Z" fill="white" stroke="#B5B3B3" stroke-width="2"/>
<path d="M35.1413 36.0006C32.6075 30.6561 27.0964 28.3683 24.2418 27.858C23.9159 27.8064 23.6202 27.6359 23.4113 27.3789C23.2024 27.1219 23.095 26.7966 23.1094 26.465C23.1306 25.9903 23.1306 25.4753 23.1283 24.9485C23.1283 24.2531 23.4822 23.5625 23.8573 22.8292C24.2324 22.0958 24.6452 21.2937 24.683 20.4797V20.3824L24.7231 20.2946C25.1949 19.3453 25.4474 18.377 25.4474 17.684C25.4842 17.4122 25.413 17.1368 25.2492 16.9175L25.0746 16.7395L25.1194 16.5021C25.1855 16.1533 25.2445 15.7902 25.3058 15.4247C25.3577 15.1138 25.4096 14.7982 25.4662 14.4754C25.7942 12.6456 25.6031 10.2724 22.8381 9.27804C22.6517 9.21159 22.2908 9.11903 21.8708 9.01224C20.4789 8.65625 18.4618 8.13651 17.2114 7.27503C17.2114 7.38895 17.2114 7.51235 17.1949 7.60491C17.1477 8.49487 17.1124 9.19735 16.6334 9.41331C14.3615 10.4409 13.5854 11.955 14.0383 14.4778C14.095 14.7982 14.1469 15.1138 14.1988 15.4271C14.2601 15.7949 14.3214 16.1557 14.3851 16.5045L14.4323 16.7418L14.2577 16.9198C14.0928 17.1317 14.0166 17.3999 14.0454 17.6674C14.0454 18.3794 14.3096 19.3287 14.7697 20.278L14.8122 20.3658V20.4631C14.8475 21.2605 15.2392 22.0128 15.6166 22.739C15.9941 23.4652 16.3669 24.1843 16.3669 24.9319C16.3669 25.435 16.3669 25.9642 16.3834 26.4484C16.3986 26.779 16.2923 27.1038 16.0847 27.3607C15.8772 27.6176 15.5829 27.7888 15.258 27.8414C13.0145 28.2425 7.75582 29.1799 4.87762 35.9674L4 35.609C6.74137 29.1776 11.3701 27.597 15.0882 26.923C15.1867 26.9085 15.2766 26.8583 15.3409 26.7818C15.4052 26.7053 15.4395 26.6078 15.4373 26.5077C15.4161 25.9998 15.4161 25.4587 15.4185 24.9461C15.4208 24.4335 15.1047 23.833 14.7744 23.1947C14.3828 22.44 13.9416 21.588 13.8708 20.6221C13.4075 19.705 13.1421 18.6997 13.0923 17.6721C13.0713 17.2448 13.1817 16.8214 13.4084 16.4594C13.3589 16.1723 13.3093 15.8804 13.2598 15.5813C13.2103 15.2823 13.156 14.9643 13.0994 14.6463C12.5851 11.7296 13.5523 9.79777 16.1474 8.59217C16.2101 8.2507 16.2449 7.90463 16.2513 7.55745C16.2937 6.71258 16.3197 6.20708 16.7396 6.03858C16.8488 5.99643 16.9682 5.98861 17.0819 6.01615C17.1957 6.04369 17.2984 6.1053 17.3766 6.19284C18.3391 7.14213 20.696 7.73306 22.095 8.09142C22.5526 8.21008 22.916 8.30264 23.1448 8.38333C25.7989 9.32313 26.9502 11.5516 26.3958 14.6463C26.3391 14.9643 26.2872 15.2752 26.2377 15.5813C26.1881 15.8875 26.1386 16.1723 26.0867 16.4594C26.3168 16.8203 26.4305 17.2438 26.4123 17.6721C26.3622 18.6994 26.0978 19.7045 25.6361 20.6221C25.563 21.6022 25.1124 22.4827 24.7137 23.2635C24.3904 23.8924 24.0885 24.4833 24.0885 24.9485C24.0885 25.4848 24.0885 26.0093 24.0696 26.5077C24.0663 26.6077 24.0999 26.7055 24.1639 26.7822C24.2279 26.8588 24.3178 26.909 24.4164 26.923C27.448 27.4641 33.3034 29.899 36.0094 35.5924L35.1413 36.0006Z" fill="#B5B3B3"/>
</g>
</svg>
