<?xml version="1.0" standalone="no"?>
<!DOCTYPE svg PUBLIC "-//W3C//DTD SVG 20010904//EN"
 "http://www.w3.org/TR/2001/REC-SVG-20010904/DTD/svg10.dtd">
<svg version="1.0" xmlns="http://www.w3.org/2000/svg"
 width="589.000000pt" height="589.000000pt" viewBox="0 0 589.000000 589.000000"
 preserveAspectRatio="xMidYMid meet">
<metadata>
Created by potrace 1.11, written by Peter Selinger 2001-2013
</metadata>
<g transform="translate(0.000000,589.000000) scale(0.100000,-0.100000)"
fill="#000000" stroke="none">
<path d="M5108 4725 c-173 -50 -306 -160 -386 -320 -40 -80 -187 -471 -362
-960 -79 -220 -145 -402 -147 -404 -10 -13 -36 51 -178 442 -229 631 -254 689
-341 807 -220 301 -560 420 -964 339 -204 -41 -417 -190 -533 -372 -38 -58
-117 -209 -121 -229 -2 -7 -6 -20 -9 -28 -3 -8 -60 -163 -125 -345 -127 -351
-244 -655 -252 -655 -8 0 -15 18 -244 655 -253 700 -257 711 -293 769 -86 136
-202 215 -380 257 -309 73 -584 -60 -714 -347 -41 -89 -57 -168 -53 -252 4
-70 53 -225 189 -597 20 -55 38 -107 40 -115 2 -8 16 -46 30 -85 15 -38 30
-82 35 -96 4 -14 31 -91 60 -170 28 -79 72 -200 97 -269 89 -247 155 -425 163
-445 5 -11 55 -144 111 -295 56 -151 116 -302 132 -335 114 -229 324 -412 563
-490 219 -71 492 -45 703 67 114 61 211 142 288 243 43 56 115 189 142 260 13
33 31 80 41 105 10 25 46 119 80 210 34 91 66 174 70 185 5 11 46 117 90 235
45 118 90 234 101 257 10 24 19 50 19 60 0 36 12 9 96 -226 85 -236 266 -726
301 -816 55 -137 108 -219 208 -320 131 -130 270 -208 450 -248 72 -17 311
-18 385 -3 125 27 282 101 403 192 123 93 163 145 243 319 15 33 28 65 30 70
4 16 64 178 74 200 5 11 63 173 130 360 124 345 136 380 280 770 45 121 83
225 84 230 2 6 6 17 9 25 38 95 200 551 212 600 35 135 25 318 -22 425 -121
275 -444 425 -735 340z"/>
</g>
</svg>
